<?xml version="1.0" encoding="UTF-8" standalone="no"?>
<!-- Created with Inkscape (http://www.inkscape.org/) -->

<svg
   width="1280"
   height="640"
   viewBox="0 0 338.66666 169.33333"
   version="1.1"
   id="svg5"
   xml:space="preserve"
   xmlns:inkscape="http://www.inkscape.org/namespaces/inkscape"
   xmlns:sodipodi="http://sodipodi.sourceforge.net/DTD/sodipodi-0.dtd"
   xmlns="http://www.w3.org/2000/svg"
   xmlns:svg="http://www.w3.org/2000/svg"><sodipodi:namedview
     id="namedview7"
     pagecolor="#505050"
     bordercolor="#eeeeee"
     borderopacity="1"
     inkscape:showpageshadow="0"
     inkscape:pageopacity="0"
     inkscape:pagecheckerboard="0"
     inkscape:deskcolor="#505050"
     inkscape:document-units="mm"
     showgrid="false" /><defs
     id="defs2" /><g
     inkscape:label="Layer 1"
     inkscape:groupmode="layer"
     id="layer1"><g
       id="g1313"
       transform="translate(0,7.9)"><path
         d="m 25.201393,27.808984 h -2.080519 v -2.202539 h 2.080519 z m 0,-5.506446 H 23.120874 V 20.1 h 2.080519 z"
         id="path179"
         style="fill:#fa0532;stroke-width:0.535175" /><path
         d="m 33.523473,27.808984 h -2.08052 v -2.202539 h 2.08052 z m 0,-5.506446 h -2.08052 V 20.1 h 2.08052 z"
         id="path181"
         style="fill:#fa0532;stroke-width:0.535175" /><path
         d="m 41.84574,27.808984 h -2.08052 v -2.202539 h 2.08052 z m 0,-5.506446 H 39.76522 V 20.1 h 2.08052 z"
         id="path183"
         style="fill:#fa0532;stroke-width:0.535175" /><path
         d="m 50.168195,27.808984 h -2.08052 v -2.202539 h 2.08052 z m 0,-5.506446 h -2.08052 V 20.1 h 2.08052 z"
         id="path185"
         style="fill:#fa0532;stroke-width:0.535175" /><path
         d="M 58.490649,27.808984 H 56.41013 v -2.202539 h 2.080519 z m 0,-5.506446 H 56.41013 V 20.1 h 2.080519 z"
         id="path187"
         style="fill:#fa0532;stroke-width:0.535175" /><path
         d="m 66.811226,27.808984 h -2.08052 v -2.202539 h 2.08052 z m 0,-5.506446 h -2.08052 V 20.1 h 2.08052 z"
         id="path189"
         style="fill:#fa0532;stroke-width:0.535175" /><path
         d="m 75.133681,27.808984 h -2.08052 v -2.202539 h 2.08052 z m 0,-5.506446 h -2.08052 V 20.1 h 2.08052 z"
         id="path191"
         style="fill:#fa0532;stroke-width:0.535175" /><path
         d="m 83.456136,27.808984 h -2.08052 v -2.202539 h 2.08052 z m 0,-5.506446 h -2.08052 V 20.1 h 2.08052 z"
         id="path193"
         style="fill:#fa0532;stroke-width:0.535175" /><path
         d="m 91.778591,27.808984 h -2.08052 v -2.202539 h 2.08052 z m 0,-5.506446 h -2.08052 V 20.1 h 2.08052 z"
         id="path195"
         style="fill:#fa0532;stroke-width:0.535175" /><path
         d="m 150.0339,27.808984 h -2.08052 v -2.202539 h 2.08052 z m 0,-5.506446 h -2.08052 V 20.1 h 2.08052 z"
         id="path197"
         style="fill:#fa0532;stroke-width:0.535175" /><path
         d="m 158.35635,27.808984 h -2.08052 v -2.202539 h 2.08052 z m 0,-5.506446 h -2.08052 V 20.1 h 2.08052 z"
         id="path199"
         style="fill:#fa0532;stroke-width:0.535175" /><path
         d="m 166.67881,27.808984 h -2.08052 v -2.202539 h 2.08052 z m 0,-5.506446 h -2.08052 V 20.1 h 2.08052 z"
         id="path201"
         style="fill:#fa0532;stroke-width:0.535175" /><path
         d="m 216.61354,27.808984 h -2.08052 v -2.202539 h 2.08052 z m 0,-5.506446 h -2.08052 V 20.1 h 2.08052 z"
         id="path203"
         style="fill:#fa0532;stroke-width:0.535175" /><path
         d="m 224.93411,27.808984 h -2.08052 v -2.202539 h 2.08052 z m 0,-5.506446 h -2.08052 V 20.1 h 2.08052 z"
         id="path205"
         style="fill:#fa0532;stroke-width:0.535175" /><path
         d="m 233.25469,27.808984 h -2.08052 v -2.202539 h 2.08052 z m 0,-5.506446 h -2.08052 V 20.1 h 2.08052 z"
         id="path207"
         style="fill:#fa0532;stroke-width:0.535175" /><path
         d="m 241.57526,27.808984 h -2.08051 v -2.202539 h 2.08051 z m 0,-5.506446 h -2.08051 V 20.1 h 2.08051 z"
         id="path209"
         style="fill:#fa0532;stroke-width:0.535175" /><path
         d="m 283.19693,27.808984 h -2.08052 v -2.202539 h 2.08052 z m 0,-5.506446 h -2.08052 V 20.1 h 2.08052 z"
         id="path211"
         style="fill:#fa0532;stroke-width:0.535175" /><path
         d="m 291.51751,27.808984 h -2.08052 v -2.202539 h 2.08052 z m 0,-5.506446 h -2.08052 V 20.1 h 2.08052 z"
         id="path213"
         style="fill:#fa0532;stroke-width:0.535175" /><path
         d="m 299.83808,27.808984 h -2.08052 v -2.202539 h 2.08052 z m 0,-5.506446 h -2.08052 V 20.1 h 2.08052 z"
         id="path215"
         style="fill:#fa0532;stroke-width:0.535175" /><path
         d="m 308.15866,27.808984 h -2.08052 v -2.202539 h 2.08052 z m 0,-5.506446 h -2.08052 V 20.1 h 2.08052 z"
         id="path217"
         style="fill:#fa0532;stroke-width:0.535175" /><path
         d="m 25.201393,45.430086 h -2.080519 v -2.202538 h 2.080519 z m 0,-5.506445 h -2.080519 v -2.202539 h 2.080519 z"
         id="path251"
         style="fill:#fa0532;stroke-width:0.535175" /><path
         d="m 33.523473,44.328519 h -2.08052 V 42.12598 h -2.08052 v -1.101289 h 2.08052 v -2.202538 h 2.08052 v 2.202538 h 2.080519 v 1.101289 h -2.080519 z"
         id="path253"
         style="fill:#fa0532;stroke-width:0.535175" /><path
         d="m 41.84574,45.430086 h -2.08052 v -2.202538 h 2.08052 z m 0,-5.506445 h -2.08052 v -2.202539 h 2.08052 z"
         id="path255"
         style="fill:#fa0532;stroke-width:0.535175" /><path
         d="m 83.456136,45.430086 h -2.08052 v -2.202538 h 2.08052 z m 0,-5.506445 h -2.08052 v -2.202539 h 2.08052 z"
         id="path257"
         style="fill:#fa0532;stroke-width:0.535175" /><path
         d="m 91.778591,44.328519 h -2.08052 V 42.12598 h -2.08052 v -1.101289 h 2.08052 v -2.202538 h 2.08052 v 2.202538 h 2.080519 v 1.101289 h -2.080519 z"
         id="path259"
         style="fill:#fa0532;stroke-width:0.535175" /><path
         d="m 100.10105,45.430086 h -2.080524 v -2.202538 h 2.080524 z m 0,-5.506445 h -2.080524 v -2.202539 h 2.080524 z"
         id="path261"
         style="fill:#fa0532;stroke-width:0.535175" /><path
         d="m 133.38899,45.430086 h -2.08052 v -2.202538 h 2.08052 z m 0,-5.506445 h -2.08052 v -2.202539 h 2.08052 z"
         id="path263"
         style="fill:#fa0532;stroke-width:0.535175" /><path
         d="m 141.71144,44.328519 h -2.08052 V 42.12598 h -2.08052 v -1.101289 h 2.08052 v -2.202538 h 2.08052 v 2.202538 h 2.08052 v 1.101289 h -2.08052 z"
         id="path265"
         style="fill:#fa0532;stroke-width:0.535175" /><path
         d="m 150.0339,45.430086 h -2.08052 v -2.202538 h 2.08052 z m 0,-5.506445 h -2.08052 v -2.202539 h 2.08052 z"
         id="path267"
         style="fill:#fa0532;stroke-width:0.535175" /><path
         d="m 166.67881,45.430086 h -2.08052 v -2.202538 h 2.08052 z m 0,-5.506445 h -2.08052 v -2.202539 h 2.08052 z"
         id="path269"
         style="fill:#fa0532;stroke-width:0.535175" /><path
         d="m 174.99938,44.328519 h -2.08052 V 42.12598 h -2.08052 v -1.101289 h 2.08052 v -2.202538 h 2.08052 v 2.202538 h 2.08052 v 1.101289 h -2.08052 z"
         id="path271"
         style="fill:#fa0532;stroke-width:0.535175" /><path
         d="m 183.32184,45.430086 h -2.08052 v -2.202538 h 2.08052 z m 0,-5.506445 h -2.08052 v -2.202539 h 2.08052 z"
         id="path273"
         style="fill:#fa0532;stroke-width:0.535175" /><path
         d="m 216.61354,44.328519 h -2.08052 V 42.12598 h -2.08052 v -1.101289 h 2.08052 v -2.202538 h 2.08052 v 2.202538 h 2.08051 v 1.101289 h -2.08051 z"
         id="path275"
         style="fill:#fa0532;stroke-width:0.535175" /><path
         d="m 224.93411,45.430086 h -2.08052 v -2.202538 h 2.08052 z m 0,-5.506445 h -2.08052 v -2.202539 h 2.08052 z"
         id="path277"
         style="fill:#fa0532;stroke-width:0.535175" /><path
         d="m 233.25469,44.328519 h -2.08052 V 42.12598 h -2.08052 v -1.101289 h 2.08052 v -2.202538 h 2.08052 v 2.202538 h 2.08052 v 1.101289 h -2.08052 z"
         id="path279"
         style="fill:#fa0532;stroke-width:0.535175" /><path
         d="m 241.57526,45.430086 h -2.08051 v -2.202538 h 2.08051 z m 0,-5.506445 h -2.08051 v -2.202539 h 2.08051 z"
         id="path281"
         style="fill:#fa0532;stroke-width:0.535175" /><path
         d="m 249.89584,44.328519 h -2.08052 V 42.12598 h -2.08052 v -1.101289 h 2.08052 v -2.202538 h 2.08052 v 2.202538 h 2.08052 v 1.101289 h -2.08052 z"
         id="path283"
         style="fill:#fa0532;stroke-width:0.535175" /><path
         d="m 258.21642,45.430086 h -2.08052 v -2.202538 h 2.08052 z m 0,-5.506445 h -2.08052 v -2.202539 h 2.08052 z"
         id="path285"
         style="fill:#fa0532;stroke-width:0.535175" /><path
         d="m 274.85757,45.430086 h -2.08052 v -2.202538 h 2.08052 z m 0,-5.506445 h -2.08052 v -2.202539 h 2.08052 z"
         id="path287"
         style="fill:#fa0532;stroke-width:0.535175" /><path
         d="m 283.19693,44.328519 h -2.08052 V 42.12598 h -2.08052 v -1.101289 h 2.08052 v -2.202538 h 2.08052 v 2.202538 h 2.08052 v 1.101289 h -2.08052 z"
         id="path289"
         style="fill:#fa0532;stroke-width:0.535175" /><path
         d="m 291.51751,45.430086 h -2.08052 v -2.202538 h 2.08052 z m 0,-5.506445 h -2.08052 v -2.202539 h 2.08052 z"
         id="path291"
         style="fill:#fa0532;stroke-width:0.535175" /><path
         d="m 299.83808,44.328519 h -2.08052 V 42.12598 h -2.08052 v -1.101289 h 2.08052 v -2.202538 h 2.08052 v 2.202538 h 2.08052 v 1.101289 h -2.08052 z"
         id="path293"
         style="fill:#fa0532;stroke-width:0.535175" /><path
         d="m 308.15866,45.430086 h -2.08052 v -2.202538 h 2.08052 z m 0,-5.506445 h -2.08052 v -2.202539 h 2.08052 z"
         id="path295"
         style="fill:#fa0532;stroke-width:0.535175" /><path
         d="m 316.47924,44.328519 h -2.08052 V 42.12598 h -2.08052 v -1.101289 h 2.08052 v -2.202538 h 2.08052 v 2.202538 h 2.08052 v 1.101289 h -2.08052 z"
         id="path297"
         style="fill:#fa0532;stroke-width:0.535175" /><path
         d="m 25.201393,61.949621 h -2.080519 v -2.202538 h -2.08052 v -1.101289 h 2.08052 v -2.202539 h 2.080519 v 2.202539 h 2.08052 v 1.101289 h -2.08052 z"
         id="path323"
         style="fill:#fa0532;stroke-width:0.535175" /><path
         d="m 33.523473,63.0492 h -2.08052 v -2.202538 h 2.08052 z m 0,-5.506445 h -2.08052 v -2.202539 h 2.08052 z"
         id="path325"
         style="fill:#fa0532;stroke-width:0.535175" /><path
         d="M 41.84574,61.949621 H 39.76522 V 59.747083 H 37.6847 v -1.101289 h 2.08052 v -2.202539 h 2.08052 v 2.202539 h 2.080519 v 1.101289 H 41.84574 Z"
         id="path327"
         style="fill:#fa0532;stroke-width:0.535175" /><path
         d="m 83.456136,61.949621 h -2.08052 v -2.202538 h -2.08052 v -1.101289 h 2.08052 v -2.202539 h 2.08052 v 2.202539 h 2.080519 v 1.101289 h -2.080519 z"
         id="path329"
         style="fill:#fa0532;stroke-width:0.535175" /><path
         d="m 91.778591,63.0492 h -2.08052 v -2.202538 h 2.08052 z m 0,-5.506445 h -2.08052 v -2.202539 h 2.08052 z"
         id="path331"
         style="fill:#fa0532;stroke-width:0.535175" /><path
         d="m 100.10105,61.949621 h -2.080524 v -2.202538 h -2.08052 v -1.101289 h 2.08052 v -2.202539 h 2.080524 v 2.202539 h 2.08052 v 1.101289 h -2.08052 z"
         id="path333"
         style="fill:#fa0532;stroke-width:0.535175" /><path
         d="m 125.06653,61.949621 h -2.08052 v -2.202538 h -2.08052 v -1.101289 h 2.08052 v -2.202539 h 2.08052 v 2.202539 h 2.08052 v 1.101289 h -2.08052 z"
         id="path335"
         style="fill:#fa0532;stroke-width:0.535175" /><path
         d="m 133.38899,63.0492 h -2.08052 v -2.202538 h 2.08052 z m 0,-5.506445 h -2.08052 v -2.202539 h 2.08052 z"
         id="path337"
         style="fill:#fa0532;stroke-width:0.535175" /><path
         d="m 141.71144,61.949621 h -2.08052 v -2.202538 h -2.08052 v -1.101289 h 2.08052 v -2.202539 h 2.08052 v 2.202539 h 2.08052 v 1.101289 h -2.08052 z"
         id="path339"
         style="fill:#fa0532;stroke-width:0.535175" /><path
         d="m 174.99938,61.949621 h -2.08052 v -2.202538 h -2.08052 v -1.101289 h 2.08052 v -2.202539 h 2.08052 v 2.202539 h 2.08052 v 1.101289 h -2.08052 z"
         id="path341"
         style="fill:#fa0532;stroke-width:0.535175" /><path
         d="m 183.32184,63.0492 h -2.08052 v -2.202538 h 2.08052 z m 0,-5.506445 h -2.08052 v -2.202539 h 2.08052 z"
         id="path343"
         style="fill:#fa0532;stroke-width:0.535175" /><path
         d="m 191.64429,61.949621 h -2.08052 v -2.202538 h -2.08052 v -1.101289 h 2.08052 v -2.202539 h 2.08052 v 2.202539 h 2.08052 v 1.101289 h -2.08052 z"
         id="path345"
         style="fill:#fa0532;stroke-width:0.535175" /><path
         d="m 216.61354,61.949621 h -2.08052 v -2.202538 h -2.08052 v -1.101289 h 2.08052 v -2.202539 h 2.08052 v 2.202539 h 2.08051 v 1.101289 h -2.08051 z"
         id="path347"
         style="fill:#fa0532;stroke-width:0.535175" /><path
         d="m 224.93411,63.0492 h -2.08052 v -2.202538 h 2.08052 z m 0,-5.506445 h -2.08052 v -2.202539 h 2.08052 z"
         id="path349"
         style="fill:#fa0532;stroke-width:0.535175" /><path
         d="m 233.25469,61.949621 h -2.08052 v -2.202538 h -2.08052 v -1.101289 h 2.08052 v -2.202539 h 2.08052 v 2.202539 h 2.08052 v 1.101289 h -2.08052 z"
         id="path351"
         style="fill:#fa0532;stroke-width:0.535175" /><path
         d="m 249.89584,61.949621 h -2.08052 v -2.202538 h -2.08052 v -1.101289 h 2.08052 v -2.202539 h 2.08052 v 2.202539 h 2.08052 v 1.101289 h -2.08052 z"
         id="path353"
         style="fill:#fa0532;stroke-width:0.535175" /><path
         d="m 258.21642,63.0492 h -2.08052 v -2.202538 h 2.08052 z m 0,-5.506445 h -2.08052 v -2.202539 h 2.08052 z"
         id="path355"
         style="fill:#fa0532;stroke-width:0.535175" /><path
         d="m 266.53699,61.949621 h -2.08051 v -2.202538 h -2.08052 v -1.101289 h 2.08052 v -2.202539 h 2.08051 v 2.202539 h 2.08052 v 1.101289 h -2.08052 z"
         id="path357"
         style="fill:#fa0532;stroke-width:0.535175" /><path
         d="m 274.85757,63.0492 h -2.08052 v -2.202538 h 2.08052 z m 0,-5.506445 h -2.08052 v -2.202539 h 2.08052 z"
         id="path359"
         style="fill:#fa0532;stroke-width:0.535175" /><path
         d="m 283.19693,61.949621 h -2.08052 v -2.202538 h -2.08052 v -1.101289 h 2.08052 v -2.202539 h 2.08052 v 2.202539 h 2.08052 v 1.101289 h -2.08052 z"
         id="path361"
         style="fill:#fa0532;stroke-width:0.535175" /><path
         d="m 299.83808,61.949621 h -2.08052 v -2.202538 h -2.08052 v -1.101289 h 2.08052 v -2.202539 h 2.08052 v 2.202539 h 2.08052 v 1.101289 h -2.08052 z"
         id="path363"
         style="fill:#fa0532;stroke-width:0.535175" /><path
         d="m 308.15866,63.0492 h -2.08052 v -2.202538 h 2.08052 z m 0,-5.506445 h -2.08052 v -2.202539 h 2.08052 z"
         id="path365"
         style="fill:#fa0532;stroke-width:0.535175" /><path
         d="m 316.47924,61.949621 h -2.08052 v -2.202538 h -2.08052 v -1.101289 h 2.08052 v -2.202539 h 2.08052 v 2.202539 h 2.08052 v 1.101289 h -2.08052 z"
         id="path367"
         style="fill:#fa0532;stroke-width:0.535175" /><path
         d="m 25.201393,79.568735 h -2.080519 v -2.202538 h -2.08052 v -1.101289 h 2.08052 v -2.202539 h 2.080519 v 2.202539 h 2.08052 v 1.101289 h -2.08052 z"
         id="path387"
         style="fill:#fa0532;stroke-width:0.535175" /><path
         d="m 28.322079,79.568735 v -1.101289 h 1.040279 V 75.163539 H 28.322079 V 74.06225 h 1.040279 v -2.202538 h 2.08052 v 2.202538 h 1.040278 v -2.202538 h 2.08052 v 2.202538 h 1.040279 v 1.101289 h -1.040279 v 3.303907 h 1.040279 v 1.101289 h -1.040279 v 2.202539 h -2.08052 v -2.202539 h -1.040278 v 2.202539 h -2.08052 v -2.202539 z m 4.16104,-1.101289 V 75.163539 H 31.44284 v 3.303907 z"
         id="path389"
         style="fill:#fa0532;stroke-width:0.535175" /><path
         d="M 41.84574,79.568735 H 39.76522 V 77.366197 H 37.6847 v -1.101289 h 2.08052 v -2.202539 h 2.08052 v 2.202539 h 2.080519 v 1.101289 H 41.84574 Z"
         id="path391"
         style="fill:#fa0532;stroke-width:0.535175" /><path
         d="m 50.168195,79.568735 h -2.08052 v -2.202538 h -2.08052 v -1.101289 h 2.08052 v -2.202539 h 2.08052 v 2.202539 h 2.080519 v 1.101289 h -2.080519 z"
         id="path393"
         style="fill:#fa0532;stroke-width:0.535175" /><path
         d="M 58.490649,80.670303 H 56.41013 v -2.202539 h 2.080519 z m 0,-5.506446 H 56.41013 v -2.202538 h 2.080519 z"
         id="path395"
         style="fill:#fa0532;stroke-width:0.535175" /><path
         d="m 66.811226,79.568735 h -2.08052 v -2.202538 h -2.08052 v -1.101289 h 2.08052 v -2.202539 h 2.08052 v 2.202539 h 2.08052 v 1.101289 h -2.08052 z"
         id="path397"
         style="fill:#fa0532;stroke-width:0.535175" /><path
         d="m 75.133681,79.568735 h -2.08052 v -2.202538 h -2.08052 v -1.101289 h 2.08052 v -2.202539 h 2.08052 v 2.202539 h 2.08052 v 1.101289 h -2.08052 z"
         id="path399"
         style="fill:#fa0532;stroke-width:0.535175" /><path
         d="m 78.255306,79.568735 v -1.101289 h 1.040278 V 75.163539 H 78.255306 V 74.06225 h 1.040278 v -2.202538 h 2.08052 v 2.202538 h 1.040279 v -2.202538 h 2.08052 v 2.202538 h 1.040278 v 1.101289 h -1.040278 v 3.303907 h 1.040278 v 1.101289 h -1.040278 v 2.202539 h -2.08052 v -2.202539 h -1.040279 v 2.202539 h -2.08052 v -2.202539 z m 4.161039,-1.101289 v -3.303907 h -1.040278 v 3.303907 z"
         id="path401"
         style="fill:#fa0532;stroke-width:0.535175" /><path
         d="m 91.778591,79.568735 h -2.08052 v -2.202538 h -2.08052 v -1.101289 h 2.08052 v -2.202539 h 2.08052 v 2.202539 h 2.080519 v 1.101289 h -2.080519 z"
         id="path403"
         style="fill:#fa0532;stroke-width:0.535175" /><path
         d="m 116.74596,79.568735 h -2.08052 v -2.202538 h -2.08052 v -1.101289 h 2.08052 v -2.202539 h 2.08052 v 2.202539 h 2.08051 v 1.101289 h -2.08051 z"
         id="path405"
         style="fill:#fa0532;stroke-width:0.535175" /><path
         d="m 119.8657,79.568735 v -1.101289 h 1.04028 V 75.163539 H 119.8657 V 74.06225 h 1.04028 v -2.202538 h 2.08052 v 2.202538 h 1.04028 v -2.202538 h 2.08052 v 2.202538 h 1.04028 v 1.101289 h -1.04028 v 3.303907 h 1.04028 v 1.101289 h -1.04028 v 2.202539 h -2.08052 v -2.202539 h -1.04028 v 2.202539 h -2.08052 v -2.202539 z m 4.16104,-1.101289 v -3.303907 h -1.04028 v 3.303907 z"
         id="path407"
         style="fill:#fa0532;stroke-width:0.535175" /><path
         d="m 133.38899,79.568735 h -2.08052 v -2.202538 h -2.08052 v -1.101289 h 2.08052 v -2.202539 h 2.08052 v 2.202539 h 2.08052 v 1.101289 h -2.08052 z"
         id="path409"
         style="fill:#fa0532;stroke-width:0.535175" /><path
         d="m 141.71144,79.568735 h -2.08052 v -2.202538 h -2.08052 v -1.101289 h 2.08052 v -2.202539 h 2.08052 v 2.202539 h 2.08052 v 1.101289 h -2.08052 z"
         id="path411"
         style="fill:#fa0532;stroke-width:0.535175" /><path
         d="m 150.0339,80.670303 h -2.08052 v -2.202539 h 2.08052 z m 0,-5.506446 h -2.08052 v -2.202538 h 2.08052 z"
         id="path413"
         style="fill:#fa0532;stroke-width:0.535175" /><path
         d="m 158.35635,79.568735 h -2.08052 v -2.202538 h -2.08052 v -1.101289 h 2.08052 v -2.202539 h 2.08052 v 2.202539 h 2.08052 v 1.101289 h -2.08052 z"
         id="path415"
         style="fill:#fa0532;stroke-width:0.535175" /><path
         d="m 166.67881,79.568735 h -2.08052 v -2.202538 h -2.08052 v -1.101289 h 2.08052 v -2.202539 h 2.08052 v 2.202539 h 2.08052 v 1.101289 h -2.08052 z"
         id="path417"
         style="fill:#fa0532;stroke-width:0.535175" /><path
         d="m 169.79855,79.568735 v -1.101289 h 1.04028 v -3.303907 h -1.04028 V 74.06225 h 1.04028 v -2.202538 h 2.08052 v 2.202538 h 1.04028 v -2.202538 h 2.08052 v 2.202538 h 1.04028 v 1.101289 h -1.04028 v 3.303907 h 1.04028 v 1.101289 h -1.04028 v 2.202539 h -2.08052 v -2.202539 h -1.04028 v 2.202539 h -2.08052 v -2.202539 z m 4.16104,-1.101289 v -3.303907 h -1.04028 v 3.303907 z"
         id="path419"
         style="fill:#fa0532;stroke-width:0.535175" /><path
         d="m 183.32184,79.568735 h -2.08052 v -2.202538 h -2.08052 v -1.101289 h 2.08052 v -2.202539 h 2.08052 v 2.202539 h 2.08052 v 1.101289 h -2.08052 z"
         id="path421"
         style="fill:#fa0532;stroke-width:0.535175" /><path
         d="m 191.64429,79.568735 h -2.08052 v -2.202538 h -2.08052 v -1.101289 h 2.08052 v -2.202539 h 2.08052 v 2.202539 h 2.08052 v 1.101289 h -2.08052 z"
         id="path423"
         style="fill:#fa0532;stroke-width:0.535175" /><path
         d="m 199.96675,80.670303 h -2.08052 v -2.202539 h 2.08052 z m 0,-5.506446 h -2.08052 v -2.202538 h 2.08052 z"
         id="path425"
         style="fill:#fa0532;stroke-width:0.535175" /><path
         d="m 216.61354,79.568735 h -2.08052 v -2.202538 h -2.08052 v -1.101289 h 2.08052 v -2.202539 h 2.08052 v 2.202539 h 2.08051 v 1.101289 h -2.08051 z"
         id="path427"
         style="fill:#fa0532;stroke-width:0.535175" /><path
         d="m 219.7314,79.568735 v -1.101289 h 1.04028 V 75.163539 H 219.7314 V 74.06225 h 1.04028 v -2.202538 h 2.08052 v 2.202538 h 1.04028 v -2.202538 h 2.08052 v 2.202538 h 1.04028 v 1.101289 H 225.973 v 3.303907 h 1.04028 v 1.101289 H 225.973 v 2.202539 h -2.08052 v -2.202539 h -1.04028 v 2.202539 h -2.08052 v -2.202539 z m 4.16104,-1.101289 v -3.303907 h -1.04028 v 3.303907 z"
         id="path429"
         style="fill:#fa0532;stroke-width:0.535175" /><path
         d="m 233.25469,79.568735 h -2.08052 v -2.202538 h -2.08052 v -1.101289 h 2.08052 v -2.202539 h 2.08052 v 2.202539 h 2.08052 v 1.101289 h -2.08052 z"
         id="path431"
         style="fill:#fa0532;stroke-width:0.535175" /><path
         d="m 258.21642,79.568735 h -2.08052 v -2.202538 h -2.08052 v -1.101289 h 2.08052 v -2.202539 h 2.08052 v 2.202539 h 2.08052 v 1.101289 h -2.08052 z"
         id="path433"
         style="fill:#fa0532;stroke-width:0.535175" /><path
         d="m 266.53699,80.670303 h -2.08051 v -2.202539 h 2.08051 z m 0,-5.506446 h -2.08051 v -2.202538 h 2.08051 z"
         id="path435"
         style="fill:#fa0532;stroke-width:0.535175" /><path
         d="m 274.85757,79.568735 h -2.08052 v -2.202538 h -2.08052 v -1.101289 h 2.08052 v -2.202539 h 2.08052 v 2.202539 h 2.08052 v 1.101289 h -2.08052 z"
         id="path437"
         style="fill:#fa0532;stroke-width:0.535175" /><path
         d="m 299.83808,79.568735 h -2.08052 v -2.202538 h -2.08052 v -1.101289 h 2.08052 v -2.202539 h 2.08052 v 2.202539 h 2.08052 v 1.101289 h -2.08052 z"
         id="path439"
         style="fill:#fa0532;stroke-width:0.535175" /><path
         d="m 302.95595,79.568735 v -1.101289 h 1.04028 v -3.303907 h -1.04028 V 74.06225 h 1.04028 v -2.202538 h 2.08052 v 2.202538 h 1.04028 v -2.202538 h 2.08052 v 2.202538 h 1.04028 v 1.101289 h -1.04028 v 3.303907 h 1.04028 v 1.101289 h -1.04028 v 2.202539 h -2.08052 v -2.202539 h -1.04028 v 2.202539 h -2.08052 v -2.202539 z m 4.16104,-1.101289 v -3.303907 h -1.04028 v 3.303907 z"
         id="path441"
         style="fill:#fa0532;stroke-width:0.535175" /><path
         d="m 316.47924,79.568735 h -2.08052 v -2.202538 h -2.08052 v -1.101289 h 2.08052 v -2.202539 h 2.08052 v 2.202539 h 2.08052 v 1.101289 h -2.08052 z"
         id="path443"
         style="fill:#fa0532;stroke-width:0.535175" /><path
         d="m 25.201393,97.189838 h -2.080519 v -2.202539 h -2.08052 V 93.88601 h 2.08052 v -2.202538 h 2.080519 v 2.202538 h 2.08052 v 1.101289 h -2.08052 z"
         id="path477"
         style="fill:#fa0532;stroke-width:0.535175" /><path
         d="m 28.322079,97.189838 v -1.101289 h 1.040279 v -3.303907 h -1.040279 v -1.101289 h 1.040279 v -2.202539 h 2.08052 v 2.202539 h 1.040278 v -2.202539 h 2.08052 v 2.202539 h 1.040279 v 1.101289 h -1.040279 v 3.303907 h 1.040279 v 1.101289 h -1.040279 v 2.202538 h -2.08052 v -2.202538 h -1.040278 v 2.202538 h -2.08052 v -2.202538 z m 4.16104,-1.101289 V 92.784642 H 31.44284 v 3.303907 z"
         id="path479"
         style="fill:#fa0532;stroke-width:0.535175" /><path
         d="M 41.84574,97.189838 H 39.76522 V 94.987299 H 37.6847 V 93.88601 h 2.08052 v -2.202538 h 2.08052 v 2.202538 h 2.080519 v 1.101289 H 41.84574 Z"
         id="path481"
         style="fill:#fa0532;stroke-width:0.535175" /><path
         d="m 83.456136,97.189838 h -2.08052 v -2.202539 h -2.08052 V 93.88601 h 2.08052 v -2.202538 h 2.08052 v 2.202538 h 2.080519 v 1.101289 h -2.080519 z"
         id="path483"
         style="fill:#fa0532;stroke-width:0.535175" /><path
         d="m 86.577761,97.189838 v -1.101289 h 1.040278 v -3.303907 h -1.040278 v -1.101289 h 1.040278 v -2.202539 h 2.08052 v 2.202539 h 1.040279 v -2.202539 h 2.08052 v 2.202539 h 1.040278 v 1.101289 h -1.040278 v 3.303907 h 1.040278 v 1.101289 h -1.040278 v 2.202538 h -2.08052 v -2.202538 h -1.040279 v 2.202538 h -2.08052 V 97.189838 Z M 90.7388,96.088549 v -3.303907 h -1.040278 v 3.303907 z"
         id="path485"
         style="fill:#fa0532;stroke-width:0.535175" /><path
         d="m 100.10105,97.189838 h -2.080524 v -2.202539 h -2.08052 V 93.88601 h 2.08052 v -2.202538 h 2.080524 v 2.202538 h 2.08052 v 1.101289 h -2.08052 z"
         id="path487"
         style="fill:#fa0532;stroke-width:0.535175" /><path
         d="m 116.74596,97.189838 h -2.08052 v -2.202539 h -2.08052 V 93.88601 h 2.08052 v -2.202538 h 2.08052 v 2.202538 h 2.08051 v 1.101289 h -2.08051 z"
         id="path489"
         style="fill:#fa0532;stroke-width:0.535175" /><path
         d="m 119.8657,97.189838 v -1.101289 h 1.04028 v -3.303907 h -1.04028 v -1.101289 h 1.04028 v -2.202539 h 2.08052 v 2.202539 h 1.04028 v -2.202539 h 2.08052 v 2.202539 h 1.04028 v 1.101289 h -1.04028 v 3.303907 h 1.04028 v 1.101289 h -1.04028 v 2.202538 h -2.08052 v -2.202538 h -1.04028 v 2.202538 h -2.08052 v -2.202538 z m 4.16104,-1.101289 v -3.303907 h -1.04028 v 3.303907 z"
         id="path491"
         style="fill:#fa0532;stroke-width:0.535175" /><path
         d="m 133.38899,97.189838 h -2.08052 v -2.202539 h -2.08052 V 93.88601 h 2.08052 v -2.202538 h 2.08052 v 2.202538 h 2.08052 v 1.101289 h -2.08052 z"
         id="path493"
         style="fill:#fa0532;stroke-width:0.535175" /><path
         d="m 183.32184,97.189838 h -2.08052 V 94.987299 H 179.1608 V 93.88601 h 2.08052 v -2.202538 h 2.08052 v 2.202538 h 2.08052 v 1.101289 h -2.08052 z"
         id="path495"
         style="fill:#fa0532;stroke-width:0.535175" /><path
         d="m 186.44346,97.189838 v -1.101289 h 1.04028 v -3.303907 h -1.04028 v -1.101289 h 1.04028 v -2.202539 h 2.08052 v 2.202539 h 1.04028 v -2.202539 h 2.08052 v 2.202539 h 1.04028 v 1.101289 h -1.04028 v 3.303907 h 1.04028 v 1.101289 h -1.04028 v 2.202538 h -2.08052 v -2.202538 h -1.04028 v 2.202538 h -2.08052 v -2.202538 z m 4.16104,-1.101289 v -3.303907 h -1.04028 v 3.303907 z"
         id="path497"
         style="fill:#fa0532;stroke-width:0.535175" /><path
         d="m 199.96675,97.189838 h -2.08052 v -2.202539 h -2.08052 V 93.88601 h 2.08052 v -2.202538 h 2.08052 v 2.202538 h 2.08052 v 1.101289 h -2.08052 z"
         id="path499"
         style="fill:#fa0532;stroke-width:0.535175" /><path
         d="m 216.61354,97.189838 h -2.08052 V 94.987299 H 212.4525 V 93.88601 h 2.08052 v -2.202538 h 2.08052 v 2.202538 h 2.08051 v 1.101289 h -2.08051 z"
         id="path501"
         style="fill:#fa0532;stroke-width:0.535175" /><path
         d="m 219.7314,97.189838 v -1.101289 h 1.04028 v -3.303907 h -1.04028 v -1.101289 h 1.04028 v -2.202539 h 2.08052 v 2.202539 h 1.04028 v -2.202539 h 2.08052 v 2.202539 h 1.04028 v 1.101289 H 225.973 v 3.303907 h 1.04028 v 1.101289 H 225.973 v 2.202538 h -2.08052 v -2.202538 h -1.04028 v 2.202538 h -2.08052 v -2.202538 z m 4.16104,-1.101289 v -3.303907 h -1.04028 v 3.303907 z"
         id="path503"
         style="fill:#fa0532;stroke-width:0.535175" /><path
         d="m 233.25469,97.189838 h -2.08052 v -2.202539 h -2.08052 V 93.88601 h 2.08052 v -2.202538 h 2.08052 v 2.202538 h 2.08052 v 1.101289 h -2.08052 z"
         id="path505"
         style="fill:#fa0532;stroke-width:0.535175" /><path
         d="m 299.83808,97.189838 h -2.08052 v -2.202539 h -2.08052 V 93.88601 h 2.08052 v -2.202538 h 2.08052 v 2.202538 h 2.08052 v 1.101289 h -2.08052 z"
         id="path507"
         style="fill:#fa0532;stroke-width:0.535175" /><path
         d="m 302.95595,97.189838 v -1.101289 h 1.04028 v -3.303907 h -1.04028 v -1.101289 h 1.04028 v -2.202539 h 2.08052 v 2.202539 h 1.04028 v -2.202539 h 2.08052 v 2.202539 h 1.04028 v 1.101289 h -1.04028 v 3.303907 h 1.04028 v 1.101289 h -1.04028 v 2.202538 h -2.08052 v -2.202538 h -1.04028 v 2.202538 h -2.08052 v -2.202538 z m 4.16104,-1.101289 v -3.303907 h -1.04028 v 3.303907 z"
         id="path509"
         style="fill:#fa0532;stroke-width:0.535175" /><path
         d="m 316.47924,97.189838 h -2.08052 V 94.987299 H 312.3182 V 93.88601 h 2.08052 v -2.202538 h 2.08052 v 2.202538 h 2.08052 v 1.101289 h -2.08052 z"
         id="path511"
         style="fill:#fa0532;stroke-width:0.535175" /><path
         d="m 20,114.81094 v -1.10129 h 1.040279 v -3.30391 H 20 v -1.10129 h 1.040279 v -2.20253 h 2.080519 v 2.20253 h 1.040279 v -2.20253 h 2.08052 v 2.20253 h 1.040279 v 1.10129 h -1.040279 v 3.30391 h 1.040279 v 1.10129 h -1.040279 v 2.20254 h -2.08052 v -2.20254 h -1.040279 v 2.20254 h -2.080519 v -2.20254 z m 4.16104,-1.10129 v -3.30391 h -1.040279 v 3.30391 z"
         id="path531"
         style="fill:#fa0532;stroke-width:0.535175" /><path
         d="m 33.523473,114.81094 h -2.08052 v -2.20254 h -2.08052 v -1.10129 h 2.08052 v -2.20254 h 2.08052 v 2.20254 h 2.080519 v 1.10129 h -2.080519 z"
         id="path533"
         style="fill:#fa0532;stroke-width:0.535175" /><path
         d="m 36.644346,114.81094 v -1.10129 h 1.040279 v -3.30391 h -1.040279 v -1.10129 h 1.040279 v -2.20253 h 2.08052 v 2.20253 h 1.040278 v -2.20253 h 2.08052 v 2.20253 h 1.040279 v 1.10129 h -1.040279 v 3.30391 h 1.040279 v 1.10129 h -1.040279 v 2.20254 h -2.08052 v -2.20254 h -1.040278 v 2.20254 h -2.08052 v -2.20254 z m 4.16104,-1.10129 v -3.30391 h -1.040279 v 3.30391 z"
         id="path535"
         style="fill:#fa0532;stroke-width:0.535175" /><path
         d="m 78.255306,114.81094 v -1.10129 h 1.040278 v -3.30391 h -1.040278 v -1.10129 h 1.040278 v -2.20253 h 2.08052 v 2.20253 h 1.040279 v -2.20253 h 2.08052 v 2.20253 h 1.040278 v 1.10129 h -1.040278 v 3.30391 h 1.040278 v 1.10129 h -1.040278 v 2.20254 h -2.08052 v -2.20254 h -1.040279 v 2.20254 h -2.08052 v -2.20254 z m 4.161039,-1.10129 v -3.30391 h -1.040278 v 3.30391 z"
         id="path537"
         style="fill:#fa0532;stroke-width:0.535175" /><path
         d="m 91.778591,114.81094 h -2.08052 v -2.20254 h -2.08052 v -1.10129 h 2.08052 v -2.20254 h 2.08052 v 2.20254 h 2.080519 v 1.10129 h -2.080519 z"
         id="path539"
         style="fill:#fa0532;stroke-width:0.535175" /><path
         d="m 94.900215,114.81094 v -1.10129 h 1.040279 v -3.30391 h -1.040279 v -1.10129 h 1.040279 v -2.20253 h 2.08052 v 2.20253 h 1.040279 v -2.20253 h 2.080517 v 2.20253 h 1.04028 v 1.10129 h -1.04028 v 3.30391 h 1.04028 v 1.10129 h -1.04028 v 2.20254 h -2.080517 v -2.20254 h -1.040279 v 2.20254 h -2.08052 v -2.20254 z m 4.16104,-1.10129 v -3.30391 h -1.040279 v 3.30391 z"
         id="path541"
         style="fill:#fa0532;stroke-width:0.535175" /><path
         d="m 111.54325,114.81094 v -1.10129 h 1.04028 v -3.30391 h -1.04028 v -1.10129 h 1.04028 v -2.20253 h 2.08052 v 2.20253 h 1.04027 v -2.20253 h 2.08052 v 2.20253 h 1.04028 v 1.10129 h -1.04028 v 3.30391 h 1.04028 v 1.10129 h -1.04028 v 2.20254 h -2.08052 v -2.20254 h -1.04027 v 2.20254 h -2.08052 v -2.20254 z m 4.16104,-1.10129 v -3.30391 h -1.04028 v 3.30391 z"
         id="path543"
         style="fill:#fa0532;stroke-width:0.535175" /><path
         d="m 125.06653,114.81094 h -2.08052 v -2.20254 h -2.08052 v -1.10129 h 2.08052 v -2.20254 h 2.08052 v 2.20254 h 2.08052 v 1.10129 h -2.08052 z"
         id="path545"
         style="fill:#fa0532;stroke-width:0.535175" /><path
         d="m 128.18816,114.81094 v -1.10129 h 1.04028 v -3.30391 h -1.04028 v -1.10129 h 1.04028 v -2.20253 h 2.08052 v 2.20253 h 1.04027 v -2.20253 h 2.08052 v 2.20253 h 1.04028 v 1.10129 h -1.04028 v 3.30391 h 1.04028 v 1.10129 h -1.04028 v 2.20254 h -2.08052 v -2.20254 h -1.04027 v 2.20254 h -2.08052 v -2.20254 z m 4.16104,-1.10129 v -3.30391 h -1.04028 v 3.30391 z"
         id="path547"
         style="fill:#fa0532;stroke-width:0.535175" /><path
         d="m 178.12101,114.81094 v -1.10129 h 1.04028 v -3.30391 h -1.04028 v -1.10129 h 1.04028 v -2.20253 h 2.08052 v 2.20253 h 1.04027 v -2.20253 h 2.08052 v 2.20253 h 1.04028 v 1.10129 h -1.04028 v 3.30391 h 1.04028 v 1.10129 h -1.04028 v 2.20254 h -2.08052 v -2.20254 h -1.04027 v 2.20254 h -2.08052 v -2.20254 z m 4.16104,-1.10129 v -3.30391 h -1.04028 v 3.30391 z"
         id="path549"
         style="fill:#fa0532;stroke-width:0.535175" /><path
         d="m 191.64429,114.81094 h -2.08052 v -2.20254 h -2.08052 v -1.10129 h 2.08052 v -2.20254 h 2.08052 v 2.20254 h 2.08052 v 1.10129 h -2.08052 z"
         id="path551"
         style="fill:#fa0532;stroke-width:0.535175" /><path
         d="m 194.76592,114.81094 v -1.10129 h 1.04028 v -3.30391 h -1.04028 v -1.10129 h 1.04028 v -2.20253 h 2.08052 v 2.20253 h 1.04027 v -2.20253 h 2.08052 v 2.20253 h 1.04028 v 1.10129 h -1.04028 v 3.30391 h 1.04028 v 1.10129 h -1.04028 v 2.20254 h -2.08052 v -2.20254 h -1.04027 v 2.20254 h -2.08052 v -2.20254 z m 4.16104,-1.10129 v -3.30391 h -1.04028 v 3.30391 z"
         id="path553"
         style="fill:#fa0532;stroke-width:0.535175" /><path
         d="m 211.41083,114.81094 v -1.10129 h 1.04028 v -3.30391 h -1.04028 v -1.10129 h 1.04028 v -2.20253 h 2.08052 v 2.20253 h 1.04027 v -2.20253 h 2.08052 v 2.20253 h 1.04028 v 1.10129 h -1.04028 v 3.30391 h 1.04028 v 1.10129 h -1.04028 v 2.20254 h -2.08052 v -2.20254 h -1.04027 v 2.20254 h -2.08052 v -2.20254 z m 4.16104,-1.10129 v -3.30391 h -1.04028 v 3.30391 z"
         id="path555"
         style="fill:#fa0532;stroke-width:0.535175" /><path
         d="m 224.93411,114.81094 h -2.08052 v -2.20254 h -2.08052 v -1.10129 h 2.08052 v -2.20254 h 2.08052 v 2.20254 h 2.08052 v 1.10129 h -2.08052 z"
         id="path557"
         style="fill:#fa0532;stroke-width:0.535175" /><path
         d="m 228.05198,114.81094 v -1.10129 h 1.04028 v -3.30391 h -1.04028 v -1.10129 h 1.04028 v -2.20253 h 2.08052 v 2.20253 h 1.04028 v -2.20253 h 2.08052 v 2.20253 h 1.04028 v 1.10129 h -1.04028 v 3.30391 h 1.04028 v 1.10129 h -1.04028 v 2.20254 h -2.08052 v -2.20254 h -1.04028 v 2.20254 h -2.08052 v -2.20254 z m 4.16104,-1.10129 v -3.30391 h -1.04028 v 3.30391 z"
         id="path559"
         style="fill:#fa0532;stroke-width:0.535175" /><path
         d="m 294.63538,114.81094 v -1.10129 h 1.04027 v -3.30391 h -1.04027 v -1.10129 h 1.04027 v -2.20253 h 2.08052 v 2.20253 h 1.04028 v -2.20253 h 2.08052 v 2.20253 h 1.04028 v 1.10129 h -1.04028 v 3.30391 h 1.04028 v 1.10129 h -1.04028 v 2.20254 h -2.08052 v -2.20254 h -1.04028 v 2.20254 h -2.08052 v -2.20254 z m 4.16104,-1.10129 v -3.30391 h -1.04028 v 3.30391 z"
         id="path561"
         style="fill:#fa0532;stroke-width:0.535175" /><path
         d="m 308.15866,114.81094 h -2.08052 v -2.20254 h -2.08052 v -1.10129 h 2.08052 v -2.20254 h 2.08052 v 2.20254 h 2.08052 v 1.10129 h -2.08052 z"
         id="path563"
         style="fill:#fa0532;stroke-width:0.535175" /><path
         d="m 311.27653,114.81094 v -1.10129 h 1.04028 v -3.30391 h -1.04028 v -1.10129 h 1.04028 v -2.20253 h 2.08052 v 2.20253 h 1.04028 v -2.20253 h 2.08052 v 2.20253 h 1.04027 v 1.10129 h -1.04027 v 3.30391 h 1.04027 v 1.10129 h -1.04027 v 2.20254 h -2.08052 v -2.20254 h -1.04028 v 2.20254 h -2.08052 v -2.20254 z m 4.16104,-1.10129 v -3.30391 h -1.04028 v 3.30391 z"
         id="path565"
         style="fill:#fa0532;stroke-width:0.535175" /><path
         d="m 20,132.43005 v -1.10128 h 1.040279 v -3.30391 H 20 v -1.10129 h 1.040279 v -2.20254 h 2.080519 v 2.20254 h 1.040279 v -2.20254 h 2.08052 v 2.20254 h 1.040279 v 1.10129 h -1.040279 v 3.30391 h 1.040279 v 1.10128 h -1.040279 v 2.20254 h -2.08052 v -2.20254 h -1.040279 v 2.20254 h -2.080519 v -2.20254 z m 4.16104,-1.10128 v -3.30391 h -1.040279 v 3.30391 z"
         id="path591"
         style="fill:#fa0532;stroke-width:0.535175" /><path
         d="m 28.322079,132.43005 v -1.10128 h 1.040279 v -3.30391 h -1.040279 v -1.10129 h 1.040279 v -2.20254 h 2.08052 v 2.20254 h 1.040278 v -2.20254 h 2.08052 v 2.20254 h 1.040279 v 1.10129 h -1.040279 v 3.30391 h 1.040279 v 1.10128 h -1.040279 v 2.20254 h -2.08052 v -2.20254 h -1.040278 v 2.20254 h -2.08052 v -2.20254 z m 4.16104,-1.10128 v -3.30391 H 31.44284 v 3.30391 z"
         id="path593"
         style="fill:#fa0532;stroke-width:0.535175" /><path
         d="m 36.644346,132.43005 v -1.10128 h 1.040279 v -3.30391 h -1.040279 v -1.10129 h 1.040279 v -2.20254 h 2.08052 v 2.20254 h 1.040278 v -2.20254 h 2.08052 v 2.20254 h 1.040279 v 1.10129 h -1.040279 v 3.30391 h 1.040279 v 1.10128 h -1.040279 v 2.20254 h -2.08052 v -2.20254 h -1.040278 v 2.20254 h -2.08052 v -2.20254 z m 4.16104,-1.10128 v -3.30391 h -1.040279 v 3.30391 z"
         id="path595"
         style="fill:#fa0532;stroke-width:0.535175" /><path
         d="m 44.967365,132.43005 v -1.10128 h 1.040278 v -3.30391 h -1.040278 v -1.10129 h 1.040278 v -2.20254 h 2.08052 v 2.20254 h 1.040279 v -2.20254 h 2.08052 v 2.20254 h 1.040278 v 1.10129 h -1.040278 v 3.30391 h 1.040278 v 1.10128 h -1.040278 v 2.20254 h -2.08052 v -2.20254 h -1.040279 v 2.20254 h -2.08052 v -2.20254 z m 4.161039,-1.10128 v -3.30391 h -1.040279 v 3.30391 z"
         id="path597"
         style="fill:#fa0532;stroke-width:0.535175" /><path
         d="m 53.287941,132.43005 v -1.10128 h 1.040279 v -3.30391 h -1.040279 v -1.10129 h 1.040279 v -2.20254 h 2.08052 v 2.20254 h 1.040278 v -2.20254 h 2.08052 v 2.20254 h 1.040279 v 1.10129 h -1.040279 v 3.30391 h 1.040279 v 1.10128 h -1.040279 v 2.20254 h -2.08052 v -2.20254 H 56.40874 v 2.20254 h -2.08052 v -2.20254 z m 4.16104,-1.10128 v -3.30391 h -1.040279 v 3.30391 z"
         id="path599"
         style="fill:#fa0532;stroke-width:0.535175" /><path
         d="m 61.610396,132.43005 v -1.10128 h 1.040279 v -3.30391 h -1.040279 v -1.10129 h 1.040279 v -2.20254 h 2.08052 v 2.20254 h 1.040278 v -2.20254 h 2.08052 v 2.20254 h 1.040279 v 1.10129 h -1.040279 v 3.30391 h 1.040279 v 1.10128 h -1.040279 v 2.20254 h -2.08052 v -2.20254 h -1.040278 v 2.20254 h -2.08052 v -2.20254 z m 4.16104,-1.10128 v -3.30391 h -1.040279 v 3.30391 z"
         id="path601"
         style="fill:#fa0532;stroke-width:0.535175" /><path
         d="m 69.932851,132.43005 v -1.10128 h 1.040279 v -3.30391 h -1.040279 v -1.10129 h 1.040279 v -2.20254 h 2.080519 v 2.20254 h 1.040279 v -2.20254 h 2.08052 v 2.20254 h 1.040279 v 1.10129 h -1.040279 v 3.30391 h 1.040279 v 1.10128 h -1.040279 v 2.20254 h -2.08052 v -2.20254 h -1.040279 v 2.20254 H 70.97313 v -2.20254 z m 4.161039,-1.10128 v -3.30391 h -1.040278 v 3.30391 z"
         id="path603"
         style="fill:#fa0532;stroke-width:0.535175" /><path
         d="m 78.255306,132.43005 v -1.10128 h 1.040278 v -3.30391 h -1.040278 v -1.10129 h 1.040278 v -2.20254 h 2.08052 v 2.20254 h 1.040279 v -2.20254 h 2.08052 v 2.20254 h 1.040278 v 1.10129 h -1.040278 v 3.30391 h 1.040278 v 1.10128 h -1.040278 v 2.20254 h -2.08052 v -2.20254 h -1.040279 v 2.20254 h -2.08052 v -2.20254 z m 4.161039,-1.10128 v -3.30391 h -1.040278 v 3.30391 z"
         id="path605"
         style="fill:#fa0532;stroke-width:0.535175" /><path
         d="m 86.577761,132.43005 v -1.10128 h 1.040278 v -3.30391 h -1.040278 v -1.10129 h 1.040278 v -2.20254 h 2.08052 v 2.20254 h 1.040279 v -2.20254 h 2.08052 v 2.20254 h 1.040278 v 1.10129 h -1.040278 v 3.30391 h 1.040278 v 1.10128 h -1.040278 v 2.20254 h -2.08052 v -2.20254 h -1.040279 v 2.20254 h -2.08052 v -2.20254 z m 4.161039,-1.10128 v -3.30391 h -1.040278 v 3.30391 z"
         id="path607"
         style="fill:#fa0532;stroke-width:0.535175" /><path
         d="m 111.54325,132.43005 v -1.10128 h 1.04028 v -3.30391 h -1.04028 v -1.10129 h 1.04028 v -2.20254 h 2.08052 v 2.20254 h 1.04027 v -2.20254 h 2.08052 v 2.20254 h 1.04028 v 1.10129 h -1.04028 v 3.30391 h 1.04028 v 1.10128 h -1.04028 v 2.20254 h -2.08052 v -2.20254 h -1.04027 v 2.20254 h -2.08052 v -2.20254 z m 4.16104,-1.10128 v -3.30391 h -1.04028 v 3.30391 z"
         id="path609"
         style="fill:#fa0532;stroke-width:0.535175" /><path
         d="m 119.8657,132.43005 v -1.10128 h 1.04028 v -3.30391 h -1.04028 v -1.10129 h 1.04028 v -2.20254 h 2.08052 v 2.20254 h 1.04028 v -2.20254 h 2.08052 v 2.20254 h 1.04028 v 1.10129 h -1.04028 v 3.30391 h 1.04028 v 1.10128 h -1.04028 v 2.20254 h -2.08052 v -2.20254 h -1.04028 v 2.20254 h -2.08052 v -2.20254 z m 4.16104,-1.10128 v -3.30391 h -1.04028 v 3.30391 z"
         id="path611"
         style="fill:#fa0532;stroke-width:0.535175" /><path
         d="m 128.18816,132.43005 v -1.10128 h 1.04028 v -3.30391 h -1.04028 v -1.10129 h 1.04028 v -2.20254 h 2.08052 v 2.20254 h 1.04027 v -2.20254 h 2.08052 v 2.20254 h 1.04028 v 1.10129 h -1.04028 v 3.30391 h 1.04028 v 1.10128 h -1.04028 v 2.20254 h -2.08052 v -2.20254 h -1.04027 v 2.20254 h -2.08052 v -2.20254 z m 4.16104,-1.10128 v -3.30391 h -1.04028 v 3.30391 z"
         id="path613"
         style="fill:#fa0532;stroke-width:0.535175" /><path
         d="m 178.12101,132.43005 v -1.10128 h 1.04028 v -3.30391 h -1.04028 v -1.10129 h 1.04028 v -2.20254 h 2.08052 v 2.20254 h 1.04027 v -2.20254 h 2.08052 v 2.20254 h 1.04028 v 1.10129 h -1.04028 v 3.30391 h 1.04028 v 1.10128 h -1.04028 v 2.20254 h -2.08052 v -2.20254 h -1.04027 v 2.20254 h -2.08052 v -2.20254 z m 4.16104,-1.10128 v -3.30391 h -1.04028 v 3.30391 z"
         id="path615"
         style="fill:#fa0532;stroke-width:0.535175" /><path
         d="m 186.44346,132.43005 v -1.10128 h 1.04028 v -3.30391 h -1.04028 v -1.10129 h 1.04028 v -2.20254 h 2.08052 v 2.20254 h 1.04028 v -2.20254 h 2.08052 v 2.20254 h 1.04028 v 1.10129 h -1.04028 v 3.30391 h 1.04028 v 1.10128 h -1.04028 v 2.20254 h -2.08052 v -2.20254 h -1.04028 v 2.20254 h -2.08052 v -2.20254 z m 4.16104,-1.10128 v -3.30391 h -1.04028 v 3.30391 z"
         id="path617"
         style="fill:#fa0532;stroke-width:0.535175" /><path
         d="m 194.76592,132.43005 v -1.10128 h 1.04028 v -3.30391 h -1.04028 v -1.10129 h 1.04028 v -2.20254 h 2.08052 v 2.20254 h 1.04027 v -2.20254 h 2.08052 v 2.20254 h 1.04028 v 1.10129 h -1.04028 v 3.30391 h 1.04028 v 1.10128 h -1.04028 v 2.20254 h -2.08052 v -2.20254 h -1.04027 v 2.20254 h -2.08052 v -2.20254 z m 4.16104,-1.10128 v -3.30391 h -1.04028 v 3.30391 z"
         id="path619"
         style="fill:#fa0532;stroke-width:0.535175" /><path
         d="m 211.41083,132.43005 v -1.10128 h 1.04028 v -3.30391 h -1.04028 v -1.10129 h 1.04028 v -2.20254 h 2.08052 v 2.20254 h 1.04027 v -2.20254 h 2.08052 v 2.20254 h 1.04028 v 1.10129 h -1.04028 v 3.30391 h 1.04028 v 1.10128 h -1.04028 v 2.20254 h -2.08052 v -2.20254 h -1.04027 v 2.20254 h -2.08052 v -2.20254 z m 4.16104,-1.10128 v -3.30391 h -1.04028 v 3.30391 z"
         id="path621"
         style="fill:#fa0532;stroke-width:0.535175" /><path
         d="m 219.7314,132.43005 v -1.10128 h 1.04028 v -3.30391 h -1.04028 v -1.10129 h 1.04028 v -2.20254 h 2.08052 v 2.20254 h 1.04028 v -2.20254 h 2.08052 v 2.20254 h 1.04028 v 1.10129 H 225.973 v 3.30391 h 1.04028 v 1.10128 H 225.973 v 2.20254 h -2.08052 v -2.20254 h -1.04028 v 2.20254 h -2.08052 v -2.20254 z m 4.16104,-1.10128 v -3.30391 h -1.04028 v 3.30391 z"
         id="path623"
         style="fill:#fa0532;stroke-width:0.535175" /><path
         d="m 228.05198,132.43005 v -1.10128 h 1.04028 v -3.30391 h -1.04028 v -1.10129 h 1.04028 v -2.20254 h 2.08052 v 2.20254 h 1.04028 v -2.20254 h 2.08052 v 2.20254 h 1.04028 v 1.10129 h -1.04028 v 3.30391 h 1.04028 v 1.10128 h -1.04028 v 2.20254 h -2.08052 v -2.20254 h -1.04028 v 2.20254 h -2.08052 v -2.20254 z m 4.16104,-1.10128 v -3.30391 h -1.04028 v 3.30391 z"
         id="path625"
         style="fill:#fa0532;stroke-width:0.535175" /><path
         d="m 294.63538,132.43005 v -1.10128 h 1.04027 v -3.30391 h -1.04027 v -1.10129 h 1.04027 v -2.20254 h 2.08052 v 2.20254 h 1.04028 v -2.20254 h 2.08052 v 2.20254 h 1.04028 v 1.10129 h -1.04028 v 3.30391 h 1.04028 v 1.10128 h -1.04028 v 2.20254 h -2.08052 v -2.20254 h -1.04028 v 2.20254 h -2.08052 v -2.20254 z m 4.16104,-1.10128 v -3.30391 h -1.04028 v 3.30391 z"
         id="path627"
         style="fill:#fa0532;stroke-width:0.535175" /><path
         d="m 302.95595,132.43005 v -1.10128 h 1.04028 v -3.30391 h -1.04028 v -1.10129 h 1.04028 v -2.20254 h 2.08052 v 2.20254 h 1.04028 v -2.20254 h 2.08052 v 2.20254 h 1.04028 v 1.10129 h -1.04028 v 3.30391 h 1.04028 v 1.10128 h -1.04028 v 2.20254 h -2.08052 v -2.20254 h -1.04028 v 2.20254 h -2.08052 v -2.20254 z m 4.16104,-1.10128 v -3.30391 h -1.04028 v 3.30391 z"
         id="path629"
         style="fill:#fa0532;stroke-width:0.535175" /><path
         d="m 311.27653,132.43005 v -1.10128 h 1.04028 v -3.30391 h -1.04028 v -1.10129 h 1.04028 v -2.20254 h 2.08052 v 2.20254 h 1.04028 v -2.20254 h 2.08052 v 2.20254 h 1.04027 v 1.10129 h -1.04027 v 3.30391 h 1.04027 v 1.10128 h -1.04027 v 2.20254 h -2.08052 v -2.20254 h -1.04028 v 2.20254 h -2.08052 v -2.20254 z m 4.16104,-1.10128 v -3.30391 h -1.04028 v 3.30391 z"
         id="path631"
         style="fill:#fa0532;stroke-width:0.535175" /></g></g></svg>
