<?xml version="1.0" encoding="UTF-8"?>
<!-- Created with Inkscape (http://www.inkscape.org/) -->
<svg width="249.77mm" height="59.267mm" version="1.1" viewBox="0 0 249.77 59.267" xmlns="http://www.w3.org/2000/svg">
 <g transform="scale(.9719 1.0289)" fill="#fa0532" stroke-width=".27693" aria-label="Title">
  <path d="m2.7693 3.877h-1.1077v-1.1077h1.1077zm0-2.7693h-1.1077v-1.1077h1.1077z"/>
  <path d="m7.2001 3.877h-1.1077v-1.1077h1.1077zm0-2.7693h-1.1077v-1.1077h1.1077z"/>
  <path d="m11.631 3.877h-1.1077v-1.1077h1.1077zm0-2.7693h-1.1077v-1.1077h1.1077z"/>
  <path d="m16.062 3.877h-1.1077v-1.1077h1.1077zm0-2.7693h-1.1077v-1.1077h1.1077z"/>
  <path d="m20.493 3.877h-1.1077v-1.1077h1.1077zm0-2.7693h-1.1077v-1.1077h1.1077z"/>
  <path d="m24.923 3.877h-1.1077v-1.1077h1.1077zm0-2.7693h-1.1077v-1.1077h1.1077z"/>
  <path d="m29.354 3.877h-1.1077v-1.1077h1.1077zm0-2.7693h-1.1077v-1.1077h1.1077z"/>
  <path d="m33.785 3.877h-1.1077v-1.1077h1.1077zm0-2.7693h-1.1077v-1.1077h1.1077z"/>
  <path d="m38.216 3.877h-1.1077v-1.1077h1.1077zm0-2.7693h-1.1077v-1.1077h1.1077z"/>
  <path d="m69.232 3.877h-1.1077v-1.1077h1.1077zm0-2.7693h-1.1077v-1.1077h1.1077z"/>
  <path d="m73.663 3.877h-1.1077v-1.1077h1.1077zm0-2.7693h-1.1077v-1.1077h1.1077z"/>
  <path d="m78.094 3.877h-1.1077v-1.1077h1.1077zm0-2.7693h-1.1077v-1.1077h1.1077z"/>
  <path d="m104.68 3.877h-1.1077v-1.1077h1.1077zm0-2.7693h-1.1077v-1.1077h1.1077z"/>
  <path d="m109.11 3.877h-1.1077v-1.1077h1.1077zm0-2.7693h-1.1077v-1.1077h1.1077z"/>
  <path d="m113.54 3.877h-1.1077v-1.1077h1.1077zm0-2.7693h-1.1077v-1.1077h1.1077z"/>
  <path d="m117.97 3.877h-1.1077v-1.1077h1.1077zm0-2.7693h-1.1077v-1.1077h1.1077z"/>
  <path d="m140.13 3.877h-1.1077v-1.1077h1.1077zm0-2.7693h-1.1077v-1.1077h1.1077z"/>
  <path d="m144.56 3.877h-1.1077v-1.1077h1.1077zm0-2.7693h-1.1077v-1.1077h1.1077z"/>
  <path d="m148.99 3.877h-1.1077v-1.1077h1.1077zm0-2.7693h-1.1077v-1.1077h1.1077z"/>
  <path d="m153.42 3.877h-1.1077v-1.1077h1.1077zm0-2.7693h-1.1077v-1.1077h1.1077z"/>
  <path d="m171.14 3.877h-1.1077v-1.1077h1.1077zm0-2.7693h-1.1077v-1.1077h1.1077z"/>
  <path d="m175.57 3.877h-1.1077v-1.1077h1.1077zm0-2.7693h-1.1077v-1.1077h1.1077z"/>
  <path d="m180 3.877h-1.1077v-1.1077h1.1077zm0-2.7693h-1.1077v-1.1077h1.1077z"/>
  <path d="m184.43 3.877h-1.1077v-1.1077h1.1077zm0-2.7693h-1.1077v-1.1077h1.1077z"/>
  <path d="m188.86 3.877h-1.1077v-1.1077h1.1077zm0-2.7693h-1.1077v-1.1077h1.1077z"/>
  <path d="m193.3 3.877h-1.1077v-1.1077h1.1077zm0-2.7693h-1.1077v-1.1077h1.1077z"/>
  <path d="m197.73 3.877h-1.1077v-1.1077h1.1077zm0-2.7693h-1.1077v-1.1077h1.1077z"/>
  <path d="m202.16 3.877h-1.1077v-1.1077h1.1077zm0-2.7693h-1.1077v-1.1077h1.1077z"/>
  <path d="m219.88 3.877h-1.1077v-1.1077h1.1077zm0-2.7693h-1.1077v-1.1077h1.1077z"/>
  <path d="m224.31 3.877h-1.1077v-1.1077h1.1077zm0-2.7693h-1.1077v-1.1077h1.1077z"/>
  <path d="m228.74 3.877h-1.1077v-1.1077h1.1077zm0-2.7693h-1.1077v-1.1077h1.1077z"/>
  <path d="m233.17 3.877h-1.1077v-1.1077h1.1077zm0-2.7693h-1.1077v-1.1077h1.1077z"/>
  <path d="m237.6 3.877h-1.1077v-1.1077h1.1077zm0-2.7693h-1.1077v-1.1077h1.1077z"/>
  <path d="m242.03 3.877h-1.1077v-1.1077h1.1077zm0-2.7693h-1.1077v-1.1077h1.1077z"/>
  <path d="m246.47 3.877h-1.1077v-1.1077h1.1077zm0-2.7693h-1.1077v-1.1077h1.1077z"/>
  <path d="m250.9 3.877h-1.1077v-1.1077h1.1077zm0-2.7693h-1.1077v-1.1077h1.1077z"/>
  <path d="m2.7693 12.739h-1.1077v-1.1077h1.1077zm0-2.7693h-1.1077v-1.1077h1.1077z"/>
  <path d="m7.2001 12.185h-1.1077v-1.1077h-1.1077v-0.55386h1.1077v-1.1077h1.1077v1.1077h1.1077v0.55386h-1.1077z"/>
  <path d="m11.631 12.739h-1.1077v-1.1077h1.1077zm0-2.7693h-1.1077v-1.1077h1.1077z"/>
  <path d="m33.785 12.739h-1.1077v-1.1077h1.1077zm0-2.7693h-1.1077v-1.1077h1.1077z"/>
  <path d="m38.216 12.185h-1.1077v-1.1077h-1.1077v-0.55386h1.1077v-1.1077h1.1077v1.1077h1.1077v0.55386h-1.1077z"/>
  <path d="m42.647 12.739h-1.1077v-1.1077h1.1077zm0-2.7693h-1.1077v-1.1077h1.1077z"/>
  <path d="m60.37 12.739h-1.1077v-1.1077h1.1077zm0-2.7693h-1.1077v-1.1077h1.1077z"/>
  <path d="m64.801 12.185h-1.1077v-1.1077h-1.1077v-0.55386h1.1077v-1.1077h1.1077v1.1077h1.1077v0.55386h-1.1077z"/>
  <path d="m69.232 12.739h-1.1077v-1.1077h1.1077zm0-2.7693h-1.1077v-1.1077h1.1077z"/>
  <path d="m78.094 12.739h-1.1077v-1.1077h1.1077zm0-2.7693h-1.1077v-1.1077h1.1077z"/>
  <path d="m82.524 12.185h-1.1077v-1.1077h-1.1077v-0.55386h1.1077v-1.1077h1.1077v1.1077h1.1077v0.55386h-1.1077z"/>
  <path d="m86.955 12.739h-1.1077v-1.1077h1.1077zm0-2.7693h-1.1077v-1.1077h1.1077z"/>
  <path d="m104.68 12.185h-1.1077v-1.1077h-1.1077v-0.55386h1.1077v-1.1077h1.1077v1.1077h1.1077v0.55386h-1.1077z"/>
  <path d="m109.11 12.739h-1.1077v-1.1077h1.1077zm0-2.7693h-1.1077v-1.1077h1.1077z"/>
  <path d="m113.54 12.185h-1.1077v-1.1077h-1.1077v-0.55386h1.1077v-1.1077h1.1077v1.1077h1.1077v0.55386h-1.1077z"/>
  <path d="m117.97 12.739h-1.1077v-1.1077h1.1077zm0-2.7693h-1.1077v-1.1077h1.1077z"/>
  <path d="m122.4 12.185h-1.1077v-1.1077h-1.1077v-0.55386h1.1077v-1.1077h1.1077v1.1077h1.1077v0.55386h-1.1077z"/>
  <path d="m126.83 12.739h-1.1077v-1.1077h1.1077zm0-2.7693h-1.1077v-1.1077h1.1077z"/>
  <path d="m135.69 12.739h-1.1077v-1.1077h1.1077zm0-2.7693h-1.1077v-1.1077h1.1077z"/>
  <path d="m140.13 12.185h-1.1077v-1.1077h-1.1077v-0.55386h1.1077v-1.1077h1.1077v1.1077h1.1077v0.55386h-1.1077z"/>
  <path d="m144.56 12.739h-1.1077v-1.1077h1.1077zm0-2.7693h-1.1077v-1.1077h1.1077z"/>
  <path d="m148.99 12.185h-1.1077v-1.1077h-1.1077v-0.55386h1.1077v-1.1077h1.1077v1.1077h1.1077v0.55386h-1.1077z"/>
  <path d="m153.42 12.739h-1.1077v-1.1077h1.1077zm0-2.7693h-1.1077v-1.1077h1.1077z"/>
  <path d="m157.85 12.185h-1.1077v-1.1077h-1.1077v-0.55386h1.1077v-1.1077h1.1077v1.1077h1.1077v0.55386h-1.1077z"/>
  <path d="m166.71 12.739h-1.1077v-1.1077h1.1077zm0-2.7693h-1.1077v-1.1077h1.1077z"/>
  <path d="m171.14 12.185h-1.1077v-1.1077h-1.1077v-0.55386h1.1077v-1.1077h1.1077v1.1077h1.1077v0.55386h-1.1077z"/>
  <path d="m175.57 12.739h-1.1077v-1.1077h1.1077zm0-2.7693h-1.1077v-1.1077h1.1077z"/>
  <path d="m197.73 12.739h-1.1077v-1.1077h1.1077zm0-2.7693h-1.1077v-1.1077h1.1077z"/>
  <path d="m202.16 12.185h-1.1077v-1.1077h-1.1077v-0.55386h1.1077v-1.1077h1.1077v1.1077h1.1077v0.55386h-1.1077z"/>
  <path d="m206.59 12.739h-1.1077v-1.1077h1.1077zm0-2.7693h-1.1077v-1.1077h1.1077z"/>
  <path d="m215.45 12.739h-1.1077v-1.1077h1.1077zm0-2.7693h-1.1077v-1.1077h1.1077z"/>
  <path d="m219.88 12.185h-1.1077v-1.1077h-1.1077v-0.55386h1.1077v-1.1077h1.1077v1.1077h1.1077v0.55386h-1.1077z"/>
  <path d="m224.31 12.739h-1.1077v-1.1077h1.1077zm0-2.7693h-1.1077v-1.1077h1.1077z"/>
  <path d="m246.47 12.739h-1.1077v-1.1077h1.1077zm0-2.7693h-1.1077v-1.1077h1.1077z"/>
  <path d="m250.9 12.185h-1.1077v-1.1077h-1.1077v-0.55386h1.1077v-1.1077h1.1077v1.1077h1.1077v0.55386h-1.1077z"/>
  <path d="m255.33 12.739h-1.1077v-1.1077h1.1077zm0-2.7693h-1.1077v-1.1077h1.1077z"/>
  <path d="m2.7693 21.047h-1.1077v-1.1077h-1.1077v-0.55386h1.1077v-1.1077h1.1077v1.1077h1.1077v0.55386h-1.1077z"/>
  <path d="m7.2001 21.6h-1.1077v-1.1077h1.1077zm0-2.7693h-1.1077v-1.1077h1.1077z"/>
  <path d="m11.631 21.047h-1.1077v-1.1077h-1.1077v-0.55386h1.1077v-1.1077h1.1077v1.1077h1.1077v0.55386h-1.1077z"/>
  <path d="m33.785 21.047h-1.1077v-1.1077h-1.1077v-0.55386h1.1077v-1.1077h1.1077v1.1077h1.1077v0.55386h-1.1077z"/>
  <path d="m38.216 21.6h-1.1077v-1.1077h1.1077zm0-2.7693h-1.1077v-1.1077h1.1077z"/>
  <path d="m42.647 21.047h-1.1077v-1.1077h-1.1077v-0.55386h1.1077v-1.1077h1.1077v1.1077h1.1077v0.55386h-1.1077z"/>
  <path d="m55.939 21.047h-1.1077v-1.1077h-1.1077v-0.55386h1.1077v-1.1077h1.1077v1.1077h1.1077v0.55386h-1.1077z"/>
  <path d="m60.37 21.6h-1.1077v-1.1077h1.1077zm0-2.7693h-1.1077v-1.1077h1.1077z"/>
  <path d="m64.801 21.047h-1.1077v-1.1077h-1.1077v-0.55386h1.1077v-1.1077h1.1077v1.1077h1.1077v0.55386h-1.1077z"/>
  <path d="m82.524 21.047h-1.1077v-1.1077h-1.1077v-0.55386h1.1077v-1.1077h1.1077v1.1077h1.1077v0.55386h-1.1077z"/>
  <path d="m86.955 21.6h-1.1077v-1.1077h1.1077zm0-2.7693h-1.1077v-1.1077h1.1077z"/>
  <path d="m91.386 21.047h-1.1077v-1.1077h-1.1077v-0.55386h1.1077v-1.1077h1.1077v1.1077h1.1077v0.55386h-1.1077z"/>
  <path d="m104.68 21.047h-1.1077v-1.1077h-1.1077v-0.55386h1.1077v-1.1077h1.1077v1.1077h1.1077v0.55386h-1.1077z"/>
  <path d="m109.11 21.6h-1.1077v-1.1077h1.1077zm0-2.7693h-1.1077v-1.1077h1.1077z"/>
  <path d="m113.54 21.047h-1.1077v-1.1077h-1.1077v-0.55386h1.1077v-1.1077h1.1077v1.1077h1.1077v0.55386h-1.1077z"/>
  <path d="m122.4 21.047h-1.1077v-1.1077h-1.1077v-0.55386h1.1077v-1.1077h1.1077v1.1077h1.1077v0.55386h-1.1077z"/>
  <path d="m126.83 21.6h-1.1077v-1.1077h1.1077zm0-2.7693h-1.1077v-1.1077h1.1077z"/>
  <path d="m131.26 21.047h-1.1077v-1.1077h-1.1077v-0.55386h1.1077v-1.1077h1.1077v1.1077h1.1077v0.55386h-1.1077z"/>
  <path d="m135.69 21.6h-1.1077v-1.1077h1.1077zm0-2.7693h-1.1077v-1.1077h1.1077z"/>
  <path d="m140.13 21.047h-1.1077v-1.1077h-1.1077v-0.55386h1.1077v-1.1077h1.1077v1.1077h1.1077v0.55386h-1.1077z"/>
  <path d="m148.99 21.047h-1.1077v-1.1077h-1.1077v-0.55386h1.1077v-1.1077h1.1077v1.1077h1.1077v0.55386h-1.1077z"/>
  <path d="m153.42 21.6h-1.1077v-1.1077h1.1077zm0-2.7693h-1.1077v-1.1077h1.1077z"/>
  <path d="m157.85 21.047h-1.1077v-1.1077h-1.1077v-0.55386h1.1077v-1.1077h1.1077v1.1077h1.1077v0.55386h-1.1077z"/>
  <path d="m166.71 21.047h-1.1077v-1.1077h-1.1077v-0.55386h1.1077v-1.1077h1.1077v1.1077h1.1077v0.55386h-1.1077z"/>
  <path d="m171.14 21.6h-1.1077v-1.1077h1.1077zm0-2.7693h-1.1077v-1.1077h1.1077z"/>
  <path d="m175.57 21.047h-1.1077v-1.1077h-1.1077v-0.55386h1.1077v-1.1077h1.1077v1.1077h1.1077v0.55386h-1.1077z"/>
  <path d="m197.73 21.047h-1.1077v-1.1077h-1.1077v-0.55386h1.1077v-1.1077h1.1077v1.1077h1.1077v0.55386h-1.1077z"/>
  <path d="m202.16 21.6h-1.1077v-1.1077h1.1077zm0-2.7693h-1.1077v-1.1077h1.1077z"/>
  <path d="m206.59 21.047h-1.1077v-1.1077h-1.1077v-0.55386h1.1077v-1.1077h1.1077v1.1077h1.1077v0.55386h-1.1077z"/>
  <path d="m215.45 21.047h-1.1077v-1.1077h-1.1077v-0.55386h1.1077v-1.1077h1.1077v1.1077h1.1077v0.55386h-1.1077z"/>
  <path d="m219.88 21.6h-1.1077v-1.1077h1.1077zm0-2.7693h-1.1077v-1.1077h1.1077z"/>
  <path d="m224.31 21.047h-1.1077v-1.1077h-1.1077v-0.55386h1.1077v-1.1077h1.1077v1.1077h1.1077v0.55386h-1.1077z"/>
  <path d="m2.7693 29.908h-1.1077v-1.1077h-1.1077v-0.55386h1.1077v-1.1077h1.1077v1.1077h1.1077v0.55386h-1.1077z"/>
  <path d="m4.4308 29.908v-0.55386h0.55386v-1.6616h-0.55386v-0.55386h0.55386v-1.1077h1.1077v1.1077h0.55386v-1.1077h1.1077v1.1077h0.55386v0.55386h-0.55386v1.6616h0.55386v0.55386h-0.55386v1.1077h-1.1077v-1.1077h-0.55386v1.1077h-1.1077v-1.1077zm2.2154-0.55386v-1.6616h-0.55386v1.6616z"/>
  <path d="m11.631 29.908h-1.1077v-1.1077h-1.1077v-0.55386h1.1077v-1.1077h1.1077v1.1077h1.1077v0.55386h-1.1077z"/>
  <path d="m16.062 29.908h-1.1077v-1.1077h-1.1077v-0.55386h1.1077v-1.1077h1.1077v1.1077h1.1077v0.55386h-1.1077z"/>
  <path d="m20.493 30.462h-1.1077v-1.1077h1.1077zm0-2.7693h-1.1077v-1.1077h1.1077z"/>
  <path d="m24.923 29.908h-1.1077v-1.1077h-1.1077v-0.55386h1.1077v-1.1077h1.1077v1.1077h1.1077v0.55386h-1.1077z"/>
  <path d="m29.354 29.908h-1.1077v-1.1077h-1.1077v-0.55386h1.1077v-1.1077h1.1077v1.1077h1.1077v0.55386h-1.1077z"/>
  <path d="m31.016 29.908v-0.55386h0.55386v-1.6616h-0.55386v-0.55386h0.55386v-1.1077h1.1077v1.1077h0.55386v-1.1077h1.1077v1.1077h0.55386v0.55386h-0.55386v1.6616h0.55386v0.55386h-0.55386v1.1077h-1.1077v-1.1077h-0.55386v1.1077h-1.1077v-1.1077zm2.2154-0.55386v-1.6616h-0.55386v1.6616z"/>
  <path d="m38.216 29.908h-1.1077v-1.1077h-1.1077v-0.55386h1.1077v-1.1077h1.1077v1.1077h1.1077v0.55386h-1.1077z"/>
  <path d="m51.509 29.908h-1.1077v-1.1077h-1.1077v-0.55386h1.1077v-1.1077h1.1077v1.1077h1.1077v0.55386h-1.1077z"/>
  <path d="m53.17 29.908v-0.55386h0.55386v-1.6616h-0.55386v-0.55386h0.55386v-1.1077h1.1077v1.1077h0.55386v-1.1077h1.1077v1.1077h0.55386v0.55386h-0.55386v1.6616h0.55386v0.55386h-0.55386v1.1077h-1.1077v-1.1077h-0.55386v1.1077h-1.1077v-1.1077zm2.2154-0.55386v-1.6616h-0.55386v1.6616z"/>
  <path d="m60.37 29.908h-1.1077v-1.1077h-1.1077v-0.55386h1.1077v-1.1077h1.1077v1.1077h1.1077v0.55386h-1.1077z"/>
  <path d="m64.801 29.908h-1.1077v-1.1077h-1.1077v-0.55386h1.1077v-1.1077h1.1077v1.1077h1.1077v0.55386h-1.1077z"/>
  <path d="m69.232 30.462h-1.1077v-1.1077h1.1077zm0-2.7693h-1.1077v-1.1077h1.1077z"/>
  <path d="m73.663 29.908h-1.1077v-1.1077h-1.1077v-0.55386h1.1077v-1.1077h1.1077v1.1077h1.1077v0.55386h-1.1077z"/>
  <path d="m78.094 29.908h-1.1077v-1.1077h-1.1077v-0.55386h1.1077v-1.1077h1.1077v1.1077h1.1077v0.55386h-1.1077z"/>
  <path d="m79.755 29.908v-0.55386h0.55386v-1.6616h-0.55386v-0.55386h0.55386v-1.1077h1.1077v1.1077h0.55386v-1.1077h1.1077v1.1077h0.55386v0.55386h-0.55386v1.6616h0.55386v0.55386h-0.55386v1.1077h-1.1077v-1.1077h-0.55386v1.1077h-1.1077v-1.1077zm2.2154-0.55386v-1.6616h-0.55386v1.6616z"/>
  <path d="m86.955 29.908h-1.1077v-1.1077h-1.1077v-0.55386h1.1077v-1.1077h1.1077v1.1077h1.1077v0.55386h-1.1077z"/>
  <path d="m91.386 29.908h-1.1077v-1.1077h-1.1077v-0.55386h1.1077v-1.1077h1.1077v1.1077h1.1077v0.55386h-1.1077z"/>
  <path d="m95.817 30.462h-1.1077v-1.1077h1.1077zm0-2.7693h-1.1077v-1.1077h1.1077z"/>
  <path d="m104.68 29.908h-1.1077v-1.1077h-1.1077v-0.55386h1.1077v-1.1077h1.1077v1.1077h1.1077v0.55386h-1.1077z"/>
  <path d="m106.34 29.908v-0.55386h0.55386v-1.6616h-0.55386v-0.55386h0.55386v-1.1077h1.1077v1.1077h0.55386v-1.1077h1.1077v1.1077h0.55386v0.55386h-0.55386v1.6616h0.55386v0.55386h-0.55386v1.1077h-1.1077v-1.1077h-0.55386v1.1077h-1.1077v-1.1077zm2.2154-0.55386v-1.6616h-0.55386v1.6616z"/>
  <path d="m113.54 29.908h-1.1077v-1.1077h-1.1077v-0.55386h1.1077v-1.1077h1.1077v1.1077h1.1077v0.55386h-1.1077z"/>
  <path d="m126.83 29.908h-1.1077v-1.1077h-1.1077v-0.55386h1.1077v-1.1077h1.1077v1.1077h1.1077v0.55386h-1.1077z"/>
  <path d="m131.26 30.462h-1.1077v-1.1077h1.1077zm0-2.7693h-1.1077v-1.1077h1.1077z"/>
  <path d="m135.69 29.908h-1.1077v-1.1077h-1.1077v-0.55386h1.1077v-1.1077h1.1077v1.1077h1.1077v0.55386h-1.1077z"/>
  <path d="m148.99 29.908h-1.1077v-1.1077h-1.1077v-0.55386h1.1077v-1.1077h1.1077v1.1077h1.1077v0.55386h-1.1077z"/>
  <path d="m150.65 29.908v-0.55386h0.55386v-1.6616h-0.55386v-0.55386h0.55386v-1.1077h1.1077v1.1077h0.55386v-1.1077h1.1077v1.1077h0.55386v0.55386h-0.55386v1.6616h0.55386v0.55386h-0.55386v1.1077h-1.1077v-1.1077h-0.55386v1.1077h-1.1077v-1.1077zm2.2154-0.55386v-1.6616h-0.55386v1.6616z"/>
  <path d="m157.85 29.908h-1.1077v-1.1077h-1.1077v-0.55386h1.1077v-1.1077h1.1077v1.1077h1.1077v0.55386h-1.1077z"/>
  <path d="m166.71 29.908h-1.1077v-1.1077h-1.1077v-0.55386h1.1077v-1.1077h1.1077v1.1077h1.1077v0.55386h-1.1077z"/>
  <path d="m168.37 29.908v-0.55386h0.55386v-1.6616h-0.55386v-0.55386h0.55386v-1.1077h1.1077v1.1077h0.55386v-1.1077h1.1077v1.1077h0.55386v0.55386h-0.55386v1.6616h0.55386v0.55386h-0.55386v1.1077h-1.1077v-1.1077h-0.55386v1.1077h-1.1077v-1.1077zm2.2154-0.55386v-1.6616h-0.55386v1.6616z"/>
  <path d="m175.57 29.908h-1.1077v-1.1077h-1.1077v-0.55386h1.1077v-1.1077h1.1077v1.1077h1.1077v0.55386h-1.1077z"/>
  <path d="m197.73 29.908h-1.1077v-1.1077h-1.1077v-0.55386h1.1077v-1.1077h1.1077v1.1077h1.1077v0.55386h-1.1077z"/>
  <path d="m202.16 30.462h-1.1077v-1.1077h1.1077zm0-2.7693h-1.1077v-1.1077h1.1077z"/>
  <path d="m206.59 29.908h-1.1077v-1.1077h-1.1077v-0.55386h1.1077v-1.1077h1.1077v1.1077h1.1077v0.55386h-1.1077z"/>
  <path d="m215.45 29.908h-1.1077v-1.1077h-1.1077v-0.55386h1.1077v-1.1077h1.1077v1.1077h1.1077v0.55386h-1.1077z"/>
  <path d="m217.11 29.908v-0.55386h0.55386v-1.6616h-0.55386v-0.55386h0.55386v-1.1077h1.1077v1.1077h0.55386v-1.1077h1.1077v1.1077h0.55386v0.55386h-0.55386v1.6616h0.55386v0.55386h-0.55386v1.1077h-1.1077v-1.1077h-0.55386v1.1077h-1.1077v-1.1077zm2.2154-0.55386v-1.6616h-0.55386v1.6616z"/>
  <path d="m224.31 29.908h-1.1077v-1.1077h-1.1077v-0.55386h1.1077v-1.1077h1.1077v1.1077h1.1077v0.55386h-1.1077z"/>
  <path d="m228.74 29.908h-1.1077v-1.1077h-1.1077v-0.55386h1.1077v-1.1077h1.1077v1.1077h1.1077v0.55386h-1.1077z"/>
  <path d="m233.17 30.462h-1.1077v-1.1077h1.1077zm0-2.7693h-1.1077v-1.1077h1.1077z"/>
  <path d="m237.6 29.908h-1.1077v-1.1077h-1.1077v-0.55386h1.1077v-1.1077h1.1077v1.1077h1.1077v0.55386h-1.1077z"/>
  <path d="m242.03 29.908h-1.1077v-1.1077h-1.1077v-0.55386h1.1077v-1.1077h1.1077v1.1077h1.1077v0.55386h-1.1077z"/>
  <path d="m243.7 29.908v-0.55386h0.55386v-1.6616h-0.55386v-0.55386h0.55386v-1.1077h1.1077v1.1077h0.55386v-1.1077h1.1077v1.1077h0.55386v0.55386h-0.55386v1.6616h0.55386v0.55386h-0.55386v1.1077h-1.1077v-1.1077h-0.55386v1.1077h-1.1077v-1.1077zm2.2154-0.55386v-1.6616h-0.55386v1.6616z"/>
  <path d="m250.9 29.908h-1.1077v-1.1077h-1.1077v-0.55386h1.1077v-1.1077h1.1077v1.1077h1.1077v0.55386h-1.1077z"/>
  <path d="m255.33 29.908h-1.1077v-1.1077h-1.1077v-0.55386h1.1077v-1.1077h1.1077v1.1077h1.1077v0.55386h-1.1077z"/>
  <path d="m2.7693 38.77h-1.1077v-1.1077h-1.1077v-0.55386h1.1077v-1.1077h1.1077v1.1077h1.1077v0.55386h-1.1077z"/>
  <path d="m4.4308 38.77v-0.55386h0.55386v-1.6616h-0.55386v-0.55386h0.55386v-1.1077h1.1077v1.1077h0.55386v-1.1077h1.1077v1.1077h0.55386v0.55386h-0.55386v1.6616h0.55386v0.55386h-0.55386v1.1077h-1.1077v-1.1077h-0.55386v1.1077h-1.1077v-1.1077zm2.2154-0.55386v-1.6616h-0.55386v1.6616z"/>
  <path d="m11.631 38.77h-1.1077v-1.1077h-1.1077v-0.55386h1.1077v-1.1077h1.1077v1.1077h1.1077v0.55386h-1.1077z"/>
  <path d="m33.785 38.77h-1.1077v-1.1077h-1.1077v-0.55386h1.1077v-1.1077h1.1077v1.1077h1.1077v0.55386h-1.1077z"/>
  <path d="m35.447 38.77v-0.55386h0.55386v-1.6616h-0.55386v-0.55386h0.55386v-1.1077h1.1077v1.1077h0.55386v-1.1077h1.1077v1.1077h0.55386v0.55386h-0.55386v1.6616h0.55386v0.55386h-0.55386v1.1077h-1.1077v-1.1077h-0.55386v1.1077h-1.1077v-1.1077zm2.2154-0.55386v-1.6616h-0.55386v1.6616z"/>
  <path d="m42.647 38.77h-1.1077v-1.1077h-1.1077v-0.55386h1.1077v-1.1077h1.1077v1.1077h1.1077v0.55386h-1.1077z"/>
  <path d="m51.509 38.77h-1.1077v-1.1077h-1.1077v-0.55386h1.1077v-1.1077h1.1077v1.1077h1.1077v0.55386h-1.1077z"/>
  <path d="m53.17 38.77v-0.55386h0.55386v-1.6616h-0.55386v-0.55386h0.55386v-1.1077h1.1077v1.1077h0.55386v-1.1077h1.1077v1.1077h0.55386v0.55386h-0.55386v1.6616h0.55386v0.55386h-0.55386v1.1077h-1.1077v-1.1077h-0.55386v1.1077h-1.1077v-1.1077zm2.2154-0.55386v-1.6616h-0.55386v1.6616z"/>
  <path d="m60.37 38.77h-1.1077v-1.1077h-1.1077v-0.55386h1.1077v-1.1077h1.1077v1.1077h1.1077v0.55386h-1.1077z"/>
  <path d="m86.955 38.77h-1.1077v-1.1077h-1.1077v-0.55386h1.1077v-1.1077h1.1077v1.1077h1.1077v0.55386h-1.1077z"/>
  <path d="m88.617 38.77v-0.55386h0.55386v-1.6616h-0.55386v-0.55386h0.55386v-1.1077h1.1077v1.1077h0.55386v-1.1077h1.1077v1.1077h0.55386v0.55386h-0.55386v1.6616h0.55386v0.55386h-0.55386v1.1077h-1.1077v-1.1077h-0.55386v1.1077h-1.1077v-1.1077zm2.2154-0.55386v-1.6616h-0.55386v1.6616z"/>
  <path d="m95.817 38.77h-1.1077v-1.1077h-1.1077v-0.55386h1.1077v-1.1077h1.1077v1.1077h1.1077v0.55386h-1.1077z"/>
  <path d="m104.68 38.77h-1.1077v-1.1077h-1.1077v-0.55386h1.1077v-1.1077h1.1077v1.1077h1.1077v0.55386h-1.1077z"/>
  <path d="m106.34 38.77v-0.55386h0.55386v-1.6616h-0.55386v-0.55386h0.55386v-1.1077h1.1077v1.1077h0.55386v-1.1077h1.1077v1.1077h0.55386v0.55386h-0.55386v1.6616h0.55386v0.55386h-0.55386v1.1077h-1.1077v-1.1077h-0.55386v1.1077h-1.1077v-1.1077zm2.2154-0.55386v-1.6616h-0.55386v1.6616z"/>
  <path d="m113.54 38.77h-1.1077v-1.1077h-1.1077v-0.55386h1.1077v-1.1077h1.1077v1.1077h1.1077v0.55386h-1.1077z"/>
  <path d="m148.99 38.77h-1.1077v-1.1077h-1.1077v-0.55386h1.1077v-1.1077h1.1077v1.1077h1.1077v0.55386h-1.1077z"/>
  <path d="m150.65 38.77v-0.55386h0.55386v-1.6616h-0.55386v-0.55386h0.55386v-1.1077h1.1077v1.1077h0.55386v-1.1077h1.1077v1.1077h0.55386v0.55386h-0.55386v1.6616h0.55386v0.55386h-0.55386v1.1077h-1.1077v-1.1077h-0.55386v1.1077h-1.1077v-1.1077zm2.2154-0.55386v-1.6616h-0.55386v1.6616z"/>
  <path d="m157.85 38.77h-1.1077v-1.1077h-1.1077v-0.55386h1.1077v-1.1077h1.1077v1.1077h1.1077v0.55386h-1.1077z"/>
  <path d="m166.71 38.77h-1.1077v-1.1077h-1.1077v-0.55386h1.1077v-1.1077h1.1077v1.1077h1.1077v0.55386h-1.1077z"/>
  <path d="m168.37 38.77v-0.55386h0.55386v-1.6616h-0.55386v-0.55386h0.55386v-1.1077h1.1077v1.1077h0.55386v-1.1077h1.1077v1.1077h0.55386v0.55386h-0.55386v1.6616h0.55386v0.55386h-0.55386v1.1077h-1.1077v-1.1077h-0.55386v1.1077h-1.1077v-1.1077zm2.2154-0.55386v-1.6616h-0.55386v1.6616z"/>
  <path d="m175.57 38.77h-1.1077v-1.1077h-1.1077v-0.55386h1.1077v-1.1077h1.1077v1.1077h1.1077v0.55386h-1.1077z"/>
  <path d="m197.73 38.77h-1.1077v-1.1077h-1.1077v-0.55386h1.1077v-1.1077h1.1077v1.1077h1.1077v0.55386h-1.1077z"/>
  <path d="m199.39 38.77v-0.55386h0.55386v-1.6616h-0.55386v-0.55386h0.55386v-1.1077h1.1077v1.1077h0.55386v-1.1077h1.1077v1.1077h0.55386v0.55386h-0.55386v1.6616h0.55386v0.55386h-0.55386v1.1077h-1.1077v-1.1077h-0.55386v1.1077h-1.1077v-1.1077zm2.2154-0.55386v-1.6616h-0.55386v1.6616z"/>
  <path d="m206.59 38.77h-1.1077v-1.1077h-1.1077v-0.55386h1.1077v-1.1077h1.1077v1.1077h1.1077v0.55386h-1.1077z"/>
  <path d="m246.47 38.77h-1.1077v-1.1077h-1.1077v-0.55386h1.1077v-1.1077h1.1077v1.1077h1.1077v0.55386h-1.1077z"/>
  <path d="m248.13 38.77v-0.55386h0.55385v-1.6616h-0.55385v-0.55386h0.55385v-1.1077h1.1077v1.1077h0.55386v-1.1077h1.1077v1.1077h0.55386v0.55386h-0.55386v1.6616h0.55386v0.55386h-0.55386v1.1077h-1.1077v-1.1077h-0.55386v1.1077h-1.1077v-1.1077zm2.2154-0.55386v-1.6616h-0.55386v1.6616z"/>
  <path d="m255.33 38.77h-1.1077v-1.1077h-1.1077v-0.55386h1.1077v-1.1077h1.1077v1.1077h1.1077v0.55386h-1.1077z"/>
  <path d="m0 47.632v-0.55386h0.55386v-1.6616h-0.55386v-0.55386h0.55386v-1.1077h1.1077v1.1077h0.55386v-1.1077h1.1077v1.1077h0.55386v0.55386h-0.55386v1.6616h0.55386v0.55386h-0.55386v1.1077h-1.1077v-1.1077h-0.55386v1.1077h-1.1077v-1.1077zm2.2154-0.55386v-1.6616h-0.55386v1.6616z"/>
  <path d="m7.2001 47.632h-1.1077v-1.1077h-1.1077v-0.55386h1.1077v-1.1077h1.1077v1.1077h1.1077v0.55386h-1.1077z"/>
  <path d="m8.8617 47.632v-0.55386h0.55386v-1.6616h-0.55386v-0.55386h0.55386v-1.1077h1.1077v1.1077h0.55386v-1.1077h1.1077v1.1077h0.55386v0.55386h-0.55386v1.6616h0.55386v0.55386h-0.55386v1.1077h-1.1077v-1.1077h-0.55386v1.1077h-1.1077v-1.1077zm2.2154-0.55386v-1.6616h-0.55386v1.6616z"/>
  <path d="m31.016 47.632v-0.55386h0.55386v-1.6616h-0.55386v-0.55386h0.55386v-1.1077h1.1077v1.1077h0.55386v-1.1077h1.1077v1.1077h0.55386v0.55386h-0.55386v1.6616h0.55386v0.55386h-0.55386v1.1077h-1.1077v-1.1077h-0.55386v1.1077h-1.1077v-1.1077zm2.2154-0.55386v-1.6616h-0.55386v1.6616z"/>
  <path d="m38.216 47.632h-1.1077v-1.1077h-1.1077v-0.55386h1.1077v-1.1077h1.1077v1.1077h1.1077v0.55386h-1.1077z"/>
  <path d="m39.878 47.632v-0.55386h0.55386v-1.6616h-0.55386v-0.55386h0.55386v-1.1077h1.1077v1.1077h0.55386v-1.1077h1.1077v1.1077h0.55386v0.55386h-0.55386v1.6616h0.55386v0.55386h-0.55386v1.1077h-1.1077v-1.1077h-0.55386v1.1077h-1.1077v-1.1077zm2.2154-0.55386v-1.6616h-0.55386v1.6616z"/>
  <path d="m48.739 47.632v-0.55386h0.55386v-1.6616h-0.55386v-0.55386h0.55386v-1.1077h1.1077v1.1077h0.55386v-1.1077h1.1077v1.1077h0.55386v0.55386h-0.55386v1.6616h0.55386v0.55386h-0.55386v1.1077h-1.1077v-1.1077h-0.55386v1.1077h-1.1077v-1.1077zm2.2154-0.55386v-1.6616h-0.55386v1.6616z"/>
  <path d="m55.939 47.632h-1.1077v-1.1077h-1.1077v-0.55386h1.1077v-1.1077h1.1077v1.1077h1.1077v0.55386h-1.1077z"/>
  <path d="m57.601 47.632v-0.55386h0.55386v-1.6616h-0.55386v-0.55386h0.55386v-1.1077h1.1077v1.1077h0.55386v-1.1077h1.1077v1.1077h0.55386v0.55386h-0.55386v1.6616h0.55386v0.55386h-0.55386v1.1077h-1.1077v-1.1077h-0.55386v1.1077h-1.1077v-1.1077zm2.2154-0.55386v-1.6616h-0.55386v1.6616z"/>
  <path d="m84.186 47.632v-0.55386h0.55386v-1.6616h-0.55386v-0.55386h0.55386v-1.1077h1.1077v1.1077h0.55386v-1.1077h1.1077v1.1077h0.55386v0.55386h-0.55386v1.6616h0.55386v0.55386h-0.55386v1.1077h-1.1077v-1.1077h-0.55386v1.1077h-1.1077v-1.1077zm2.2154-0.55386v-1.6616h-0.55386v1.6616z"/>
  <path d="m91.386 47.632h-1.1077v-1.1077h-1.1077v-0.55386h1.1077v-1.1077h1.1077v1.1077h1.1077v0.55386h-1.1077z"/>
  <path d="m93.048 47.632v-0.55386h0.55386v-1.6616h-0.55386v-0.55386h0.55386v-1.1077h1.1077v1.1077h0.55386v-1.1077h1.1077v1.1077h0.55386v0.55386h-0.55386v1.6616h0.55386v0.55386h-0.55386v1.1077h-1.1077v-1.1077h-0.55386v1.1077h-1.1077v-1.1077zm2.2154-0.55386v-1.6616h-0.55386v1.6616z"/>
  <path d="m101.91 47.632v-0.55386h0.55386v-1.6616h-0.55386v-0.55386h0.55386v-1.1077h1.1077v1.1077h0.55386v-1.1077h1.1077v1.1077h0.55386v0.55386h-0.55386v1.6616h0.55386v0.55386h-0.55386v1.1077h-1.1077v-1.1077h-0.55386v1.1077h-1.1077v-1.1077zm2.2154-0.55386v-1.6616h-0.55386v1.6616z"/>
  <path d="m109.11 47.632h-1.1077v-1.1077h-1.1077v-0.55386h1.1077v-1.1077h1.1077v1.1077h1.1077v0.55386h-1.1077z"/>
  <path d="m110.77 47.632v-0.55386h0.55386v-1.6616h-0.55386v-0.55386h0.55386v-1.1077h1.1077v1.1077h0.55386v-1.1077h1.1077v1.1077h0.55386v0.55386h-0.55386v1.6616h0.55386v0.55386h-0.55386v1.1077h-1.1077v-1.1077h-0.55386v1.1077h-1.1077v-1.1077zm2.2154-0.55386v-1.6616h-0.55386v1.6616z"/>
  <path d="m146.22 47.632v-0.55386h0.55386v-1.6616h-0.55386v-0.55386h0.55386v-1.1077h1.1077v1.1077h0.55386v-1.1077h1.1077v1.1077h0.55386v0.55386h-0.55386v1.6616h0.55386v0.55386h-0.55386v1.1077h-1.1077v-1.1077h-0.55386v1.1077h-1.1077v-1.1077zm2.2154-0.55386v-1.6616h-0.55386v1.6616z"/>
  <path d="m153.42 47.632h-1.1077v-1.1077h-1.1077v-0.55386h1.1077v-1.1077h1.1077v1.1077h1.1077v0.55386h-1.1077z"/>
  <path d="m155.08 47.632v-0.55386h0.55386v-1.6616h-0.55386v-0.55386h0.55386v-1.1077h1.1077v1.1077h0.55386v-1.1077h1.1077v1.1077h0.55386v0.55386h-0.55386v1.6616h0.55386v0.55386h-0.55386v1.1077h-1.1077v-1.1077h-0.55386v1.1077h-1.1077v-1.1077zm2.2154-0.55386v-1.6616h-0.55386v1.6616z"/>
  <path d="m163.94 47.632v-0.55386h0.55386v-1.6616h-0.55386v-0.55386h0.55386v-1.1077h1.1077v1.1077h0.55386v-1.1077h1.1077v1.1077h0.55386v0.55386h-0.55386v1.6616h0.55386v0.55386h-0.55386v1.1077h-1.1077v-1.1077h-0.55386v1.1077h-1.1077v-1.1077zm2.2154-0.55386v-1.6616h-0.55386v1.6616z"/>
  <path d="m171.14 47.632h-1.1077v-1.1077h-1.1077v-0.55386h1.1077v-1.1077h1.1077v1.1077h1.1077v0.55386h-1.1077z"/>
  <path d="m172.8 47.632v-0.55386h0.55386v-1.6616h-0.55386v-0.55386h0.55386v-1.1077h1.1077v1.1077h0.55386v-1.1077h1.1077v1.1077h0.55386v0.55386h-0.55386v1.6616h0.55386v0.55386h-0.55386v1.1077h-1.1077v-1.1077h-0.55386v1.1077h-1.1077v-1.1077zm2.2154-0.55386v-1.6616h-0.55386v1.6616z"/>
  <path d="m194.96 47.632v-0.55386h0.55386v-1.6616h-0.55386v-0.55386h0.55386v-1.1077h1.1077v1.1077h0.55386v-1.1077h1.1077v1.1077h0.55386v0.55386h-0.55386v1.6616h0.55386v0.55386h-0.55386v1.1077h-1.1077v-1.1077h-0.55386v1.1077h-1.1077v-1.1077zm2.2154-0.55386v-1.6616h-0.55386v1.6616z"/>
  <path d="m202.16 47.632h-1.1077v-1.1077h-1.1077v-0.55386h1.1077v-1.1077h1.1077v1.1077h1.1077v0.55386h-1.1077z"/>
  <path d="m203.82 47.632v-0.55386h0.55385v-1.6616h-0.55385v-0.55386h0.55385v-1.1077h1.1077v1.1077h0.55386v-1.1077h1.1077v1.1077h0.55386v0.55386h-0.55386v1.6616h0.55386v0.55386h-0.55386v1.1077h-1.1077v-1.1077h-0.55386v1.1077h-1.1077v-1.1077zm2.2154-0.55386v-1.6616h-0.55386v1.6616z"/>
  <path d="m212.68 47.632v-0.55386h0.55385v-1.6616h-0.55385v-0.55386h0.55385v-1.1077h1.1077v1.1077h0.55385v-1.1077h1.1077v1.1077h0.55385v0.55386h-0.55385v1.6616h0.55385v0.55386h-0.55385v1.1077h-1.1077v-1.1077h-0.55385v1.1077h-1.1077v-1.1077zm2.2154-0.55386v-1.6616h-0.55385v1.6616z"/>
  <path d="m219.88 47.632h-1.1077v-1.1077h-1.1077v-0.55386h1.1077v-1.1077h1.1077v1.1077h1.1077v0.55386h-1.1077z"/>
  <path d="m221.54 47.632v-0.55386h0.55386v-1.6616h-0.55386v-0.55386h0.55386v-1.1077h1.1077v1.1077h0.55386v-1.1077h1.1077v1.1077h0.55386v0.55386h-0.55386v1.6616h0.55386v0.55386h-0.55386v1.1077h-1.1077v-1.1077h-0.55386v1.1077h-1.1077v-1.1077zm2.2154-0.55386v-1.6616h-0.55386v1.6616z"/>
  <path d="m243.7 47.632v-0.55386h0.55386v-1.6616h-0.55386v-0.55386h0.55386v-1.1077h1.1077v1.1077h0.55386v-1.1077h1.1077v1.1077h0.55386v0.55386h-0.55386v1.6616h0.55386v0.55386h-0.55386v1.1077h-1.1077v-1.1077h-0.55386v1.1077h-1.1077v-1.1077zm2.2154-0.55386v-1.6616h-0.55386v1.6616z"/>
  <path d="m250.9 47.632h-1.1077v-1.1077h-1.1077v-0.55386h1.1077v-1.1077h1.1077v1.1077h1.1077v0.55386h-1.1077z"/>
  <path d="m252.56 47.632v-0.55386h0.55386v-1.6616h-0.55386v-0.55386h0.55386v-1.1077h1.1077v1.1077h0.55386v-1.1077h1.1077v1.1077h0.55386v0.55386h-0.55386v1.6616h0.55386v0.55386h-0.55386v1.1077h-1.1077v-1.1077h-0.55386v1.1077h-1.1077v-1.1077zm2.2154-0.55386v-1.6616h-0.55386v1.6616z"/>
  <path d="m0 56.493v-0.55386h0.55386v-1.6616h-0.55386v-0.55386h0.55386v-1.1077h1.1077v1.1077h0.55386v-1.1077h1.1077v1.1077h0.55386v0.55386h-0.55386v1.6616h0.55386v0.55386h-0.55386v1.1077h-1.1077v-1.1077h-0.55386v1.1077h-1.1077v-1.1077zm2.2154-0.55386v-1.6616h-0.55386v1.6616z"/>
  <path d="m4.4308 56.493v-0.55386h0.55386v-1.6616h-0.55386v-0.55386h0.55386v-1.1077h1.1077v1.1077h0.55386v-1.1077h1.1077v1.1077h0.55386v0.55386h-0.55386v1.6616h0.55386v0.55386h-0.55386v1.1077h-1.1077v-1.1077h-0.55386v1.1077h-1.1077v-1.1077zm2.2154-0.55386v-1.6616h-0.55386v1.6616z"/>
  <path d="m8.8617 56.493v-0.55386h0.55386v-1.6616h-0.55386v-0.55386h0.55386v-1.1077h1.1077v1.1077h0.55386v-1.1077h1.1077v1.1077h0.55386v0.55386h-0.55386v1.6616h0.55386v0.55386h-0.55386v1.1077h-1.1077v-1.1077h-0.55386v1.1077h-1.1077v-1.1077zm2.2154-0.55386v-1.6616h-0.55386v1.6616z"/>
  <path d="m13.293 56.493v-0.55386h0.55386v-1.6616h-0.55386v-0.55386h0.55386v-1.1077h1.1077v1.1077h0.55386v-1.1077h1.1077v1.1077h0.55386v0.55386h-0.55386v1.6616h0.55386v0.55386h-0.55386v1.1077h-1.1077v-1.1077h-0.55386v1.1077h-1.1077v-1.1077zm2.2154-0.55386v-1.6616h-0.55386v1.6616z"/>
  <path d="m17.723 56.493v-0.55386h0.55386v-1.6616h-0.55386v-0.55386h0.55386v-1.1077h1.1077v1.1077h0.55386v-1.1077h1.1077v1.1077h0.55386v0.55386h-0.55386v1.6616h0.55386v0.55386h-0.55386v1.1077h-1.1077v-1.1077h-0.55386v1.1077h-1.1077v-1.1077zm2.2154-0.55386v-1.6616h-0.55386v1.6616z"/>
  <path d="m22.154 56.493v-0.55386h0.55386v-1.6616h-0.55386v-0.55386h0.55386v-1.1077h1.1077v1.1077h0.55386v-1.1077h1.1077v1.1077h0.55386v0.55386h-0.55386v1.6616h0.55386v0.55386h-0.55386v1.1077h-1.1077v-1.1077h-0.55386v1.1077h-1.1077v-1.1077zm2.2154-0.55386v-1.6616h-0.55386v1.6616z"/>
  <path d="m26.585 56.493v-0.55386h0.55386v-1.6616h-0.55386v-0.55386h0.55386v-1.1077h1.1077v1.1077h0.55386v-1.1077h1.1077v1.1077h0.55386v0.55386h-0.55386v1.6616h0.55386v0.55386h-0.55386v1.1077h-1.1077v-1.1077h-0.55386v1.1077h-1.1077v-1.1077zm2.2154-0.55386v-1.6616h-0.55386v1.6616z"/>
  <path d="m31.016 56.493v-0.55386h0.55386v-1.6616h-0.55386v-0.55386h0.55386v-1.1077h1.1077v1.1077h0.55386v-1.1077h1.1077v1.1077h0.55386v0.55386h-0.55386v1.6616h0.55386v0.55386h-0.55386v1.1077h-1.1077v-1.1077h-0.55386v1.1077h-1.1077v-1.1077zm2.2154-0.55386v-1.6616h-0.55386v1.6616z"/>
  <path d="m35.447 56.493v-0.55386h0.55386v-1.6616h-0.55386v-0.55386h0.55386v-1.1077h1.1077v1.1077h0.55386v-1.1077h1.1077v1.1077h0.55386v0.55386h-0.55386v1.6616h0.55386v0.55386h-0.55386v1.1077h-1.1077v-1.1077h-0.55386v1.1077h-1.1077v-1.1077zm2.2154-0.55386v-1.6616h-0.55386v1.6616z"/>
  <path d="m48.739 56.493v-0.55386h0.55386v-1.6616h-0.55386v-0.55386h0.55386v-1.1077h1.1077v1.1077h0.55386v-1.1077h1.1077v1.1077h0.55386v0.55386h-0.55386v1.6616h0.55386v0.55386h-0.55386v1.1077h-1.1077v-1.1077h-0.55386v1.1077h-1.1077v-1.1077zm2.2154-0.55386v-1.6616h-0.55386v1.6616z"/>
  <path d="m53.17 56.493v-0.55386h0.55386v-1.6616h-0.55386v-0.55386h0.55386v-1.1077h1.1077v1.1077h0.55386v-1.1077h1.1077v1.1077h0.55386v0.55386h-0.55386v1.6616h0.55386v0.55386h-0.55386v1.1077h-1.1077v-1.1077h-0.55386v1.1077h-1.1077v-1.1077zm2.2154-0.55386v-1.6616h-0.55386v1.6616z"/>
  <path d="m57.601 56.493v-0.55386h0.55386v-1.6616h-0.55386v-0.55386h0.55386v-1.1077h1.1077v1.1077h0.55386v-1.1077h1.1077v1.1077h0.55386v0.55386h-0.55386v1.6616h0.55386v0.55386h-0.55386v1.1077h-1.1077v-1.1077h-0.55386v1.1077h-1.1077v-1.1077zm2.2154-0.55386v-1.6616h-0.55386v1.6616z"/>
  <path d="m84.186 56.493v-0.55386h0.55386v-1.6616h-0.55386v-0.55386h0.55386v-1.1077h1.1077v1.1077h0.55386v-1.1077h1.1077v1.1077h0.55386v0.55386h-0.55386v1.6616h0.55386v0.55386h-0.55386v1.1077h-1.1077v-1.1077h-0.55386v1.1077h-1.1077v-1.1077zm2.2154-0.55386v-1.6616h-0.55386v1.6616z"/>
  <path d="m88.617 56.493v-0.55386h0.55386v-1.6616h-0.55386v-0.55386h0.55386v-1.1077h1.1077v1.1077h0.55386v-1.1077h1.1077v1.1077h0.55386v0.55386h-0.55386v1.6616h0.55386v0.55386h-0.55386v1.1077h-1.1077v-1.1077h-0.55386v1.1077h-1.1077v-1.1077zm2.2154-0.55386v-1.6616h-0.55386v1.6616z"/>
  <path d="m93.048 56.493v-0.55386h0.55386v-1.6616h-0.55386v-0.55386h0.55386v-1.1077h1.1077v1.1077h0.55386v-1.1077h1.1077v1.1077h0.55386v0.55386h-0.55386v1.6616h0.55386v0.55386h-0.55386v1.1077h-1.1077v-1.1077h-0.55386v1.1077h-1.1077v-1.1077zm2.2154-0.55386v-1.6616h-0.55386v1.6616z"/>
  <path d="m101.91 56.493v-0.55386h0.55386v-1.6616h-0.55386v-0.55386h0.55386v-1.1077h1.1077v1.1077h0.55386v-1.1077h1.1077v1.1077h0.55386v0.55386h-0.55386v1.6616h0.55386v0.55386h-0.55386v1.1077h-1.1077v-1.1077h-0.55386v1.1077h-1.1077v-1.1077zm2.2154-0.55386v-1.6616h-0.55386v1.6616z"/>
  <path d="m106.34 56.493v-0.55386h0.55386v-1.6616h-0.55386v-0.55386h0.55386v-1.1077h1.1077v1.1077h0.55386v-1.1077h1.1077v1.1077h0.55386v0.55386h-0.55386v1.6616h0.55386v0.55386h-0.55386v1.1077h-1.1077v-1.1077h-0.55386v1.1077h-1.1077v-1.1077zm2.2154-0.55386v-1.6616h-0.55386v1.6616z"/>
  <path d="m110.77 56.493v-0.55386h0.55386v-1.6616h-0.55386v-0.55386h0.55386v-1.1077h1.1077v1.1077h0.55386v-1.1077h1.1077v1.1077h0.55386v0.55386h-0.55386v1.6616h0.55386v0.55386h-0.55386v1.1077h-1.1077v-1.1077h-0.55386v1.1077h-1.1077v-1.1077zm2.2154-0.55386v-1.6616h-0.55386v1.6616z"/>
  <path d="m146.22 56.493v-0.55386h0.55386v-1.6616h-0.55386v-0.55386h0.55386v-1.1077h1.1077v1.1077h0.55386v-1.1077h1.1077v1.1077h0.55386v0.55386h-0.55386v1.6616h0.55386v0.55386h-0.55386v1.1077h-1.1077v-1.1077h-0.55386v1.1077h-1.1077v-1.1077zm2.2154-0.55386v-1.6616h-0.55386v1.6616z"/>
  <path d="m150.65 56.493v-0.55386h0.55386v-1.6616h-0.55386v-0.55386h0.55386v-1.1077h1.1077v1.1077h0.55386v-1.1077h1.1077v1.1077h0.55386v0.55386h-0.55386v1.6616h0.55386v0.55386h-0.55386v1.1077h-1.1077v-1.1077h-0.55386v1.1077h-1.1077v-1.1077zm2.2154-0.55386v-1.6616h-0.55386v1.6616z"/>
  <path d="m155.08 56.493v-0.55386h0.55386v-1.6616h-0.55386v-0.55386h0.55386v-1.1077h1.1077v1.1077h0.55386v-1.1077h1.1077v1.1077h0.55386v0.55386h-0.55386v1.6616h0.55386v0.55386h-0.55386v1.1077h-1.1077v-1.1077h-0.55386v1.1077h-1.1077v-1.1077zm2.2154-0.55386v-1.6616h-0.55386v1.6616z"/>
  <path d="m168.37 56.493v-0.55386h0.55386v-1.6616h-0.55386v-0.55386h0.55386v-1.1077h1.1077v1.1077h0.55386v-1.1077h1.1077v1.1077h0.55386v0.55386h-0.55386v1.6616h0.55386v0.55386h-0.55386v1.1077h-1.1077v-1.1077h-0.55386v1.1077h-1.1077v-1.1077zm2.2154-0.55386v-1.6616h-0.55386v1.6616z"/>
  <path d="m172.8 56.493v-0.55386h0.55386v-1.6616h-0.55386v-0.55386h0.55386v-1.1077h1.1077v1.1077h0.55386v-1.1077h1.1077v1.1077h0.55386v0.55386h-0.55386v1.6616h0.55386v0.55386h-0.55386v1.1077h-1.1077v-1.1077h-0.55386v1.1077h-1.1077v-1.1077zm2.2154-0.55386v-1.6616h-0.55386v1.6616z"/>
  <path d="m177.23 56.493v-0.55386h0.55386v-1.6616h-0.55386v-0.55386h0.55386v-1.1077h1.1077v1.1077h0.55386v-1.1077h1.1077v1.1077h0.55386v0.55386h-0.55386v1.6616h0.55386v0.55386h-0.55386v1.1077h-1.1077v-1.1077h-0.55386v1.1077h-1.1077v-1.1077zm2.2154-0.55386v-1.6616h-0.55386v1.6616z"/>
  <path d="m181.66 56.493v-0.55386h0.55385v-1.6616h-0.55385v-0.55386h0.55385v-1.1077h1.1077v1.1077h0.55386v-1.1077h1.1077v1.1077h0.55386v0.55386h-0.55386v1.6616h0.55386v0.55386h-0.55386v1.1077h-1.1077v-1.1077h-0.55386v1.1077h-1.1077v-1.1077zm2.2154-0.55386v-1.6616h-0.55386v1.6616z"/>
  <path d="m186.1 56.493v-0.55386h0.55386v-1.6616h-0.55386v-0.55386h0.55386v-1.1077h1.1077v1.1077h0.55386v-1.1077h1.1077v1.1077h0.55386v0.55386h-0.55386v1.6616h0.55386v0.55386h-0.55386v1.1077h-1.1077v-1.1077h-0.55386v1.1077h-1.1077v-1.1077zm2.2154-0.55386v-1.6616h-0.55386v1.6616z"/>
  <path d="m190.53 56.493v-0.55386h0.55386v-1.6616h-0.55386v-0.55386h0.55386v-1.1077h1.1077v1.1077h0.55386v-1.1077h1.1077v1.1077h0.55386v0.55386h-0.55386v1.6616h0.55386v0.55386h-0.55386v1.1077h-1.1077v-1.1077h-0.55386v1.1077h-1.1077v-1.1077zm2.2154-0.55386v-1.6616h-0.55386v1.6616z"/>
  <path d="m194.96 56.493v-0.55386h0.55386v-1.6616h-0.55386v-0.55386h0.55386v-1.1077h1.1077v1.1077h0.55386v-1.1077h1.1077v1.1077h0.55386v0.55386h-0.55386v1.6616h0.55386v0.55386h-0.55386v1.1077h-1.1077v-1.1077h-0.55386v1.1077h-1.1077v-1.1077zm2.2154-0.55386v-1.6616h-0.55386v1.6616z"/>
  <path d="m199.39 56.493v-0.55386h0.55386v-1.6616h-0.55386v-0.55386h0.55386v-1.1077h1.1077v1.1077h0.55386v-1.1077h1.1077v1.1077h0.55386v0.55386h-0.55386v1.6616h0.55386v0.55386h-0.55386v1.1077h-1.1077v-1.1077h-0.55386v1.1077h-1.1077v-1.1077zm2.2154-0.55386v-1.6616h-0.55386v1.6616z"/>
  <path d="m217.11 56.493v-0.55386h0.55386v-1.6616h-0.55386v-0.55386h0.55386v-1.1077h1.1077v1.1077h0.55386v-1.1077h1.1077v1.1077h0.55386v0.55386h-0.55386v1.6616h0.55386v0.55386h-0.55386v1.1077h-1.1077v-1.1077h-0.55386v1.1077h-1.1077v-1.1077zm2.2154-0.55386v-1.6616h-0.55386v1.6616z"/>
  <path d="m221.54 56.493v-0.55386h0.55386v-1.6616h-0.55386v-0.55386h0.55386v-1.1077h1.1077v1.1077h0.55386v-1.1077h1.1077v1.1077h0.55386v0.55386h-0.55386v1.6616h0.55386v0.55386h-0.55386v1.1077h-1.1077v-1.1077h-0.55386v1.1077h-1.1077v-1.1077zm2.2154-0.55386v-1.6616h-0.55386v1.6616z"/>
  <path d="m225.97 56.493v-0.55386h0.55385v-1.6616h-0.55385v-0.55386h0.55385v-1.1077h1.1077v1.1077h0.55386v-1.1077h1.1077v1.1077h0.55386v0.55386h-0.55386v1.6616h0.55386v0.55386h-0.55386v1.1077h-1.1077v-1.1077h-0.55386v1.1077h-1.1077v-1.1077zm2.2154-0.55386v-1.6616h-0.55386v1.6616z"/>
  <path d="m230.4 56.493v-0.55386h0.55386v-1.6616h-0.55386v-0.55386h0.55386v-1.1077h1.1077v1.1077h0.55386v-1.1077h1.1077v1.1077h0.55386v0.55386h-0.55386v1.6616h0.55386v0.55386h-0.55386v1.1077h-1.1077v-1.1077h-0.55386v1.1077h-1.1077v-1.1077zm2.2154-0.55386v-1.6616h-0.55386v1.6616z"/>
  <path d="m234.83 56.493v-0.55386h0.55385v-1.6616h-0.55385v-0.55386h0.55385v-1.1077h1.1077v1.1077h0.55385v-1.1077h1.1077v1.1077h0.55385v0.55386h-0.55385v1.6616h0.55385v0.55386h-0.55385v1.1077h-1.1077v-1.1077h-0.55385v1.1077h-1.1077v-1.1077zm2.2154-0.55386v-1.6616h-0.55385v1.6616z"/>
  <path d="m239.27 56.493v-0.55386h0.55386v-1.6616h-0.55386v-0.55386h0.55386v-1.1077h1.1077v1.1077h0.55386v-1.1077h1.1077v1.1077h0.55386v0.55386h-0.55386v1.6616h0.55386v0.55386h-0.55386v1.1077h-1.1077v-1.1077h-0.55386v1.1077h-1.1077v-1.1077zm2.2154-0.55386v-1.6616h-0.55386v1.6616z"/>
  <path d="m243.7 56.493v-0.55386h0.55386v-1.6616h-0.55386v-0.55386h0.55386v-1.1077h1.1077v1.1077h0.55386v-1.1077h1.1077v1.1077h0.55386v0.55386h-0.55386v1.6616h0.55386v0.55386h-0.55386v1.1077h-1.1077v-1.1077h-0.55386v1.1077h-1.1077v-1.1077zm2.2154-0.55386v-1.6616h-0.55386v1.6616z"/>
  <path d="m248.13 56.493v-0.55386h0.55385v-1.6616h-0.55385v-0.55386h0.55385v-1.1077h1.1077v1.1077h0.55386v-1.1077h1.1077v1.1077h0.55386v0.55386h-0.55386v1.6616h0.55386v0.55386h-0.55386v1.1077h-1.1077v-1.1077h-0.55386v1.1077h-1.1077v-1.1077zm2.2154-0.55386v-1.6616h-0.55386v1.6616z"/>
 </g>
</svg>
